<?xml version="1.0" encoding="UTF-8" standalone="no"?><svg xmlns="http://www.w3.org/2000/svg" xmlns:xlink="http://www.w3.org/1999/xlink" contentScriptType="application/ecmascript" contentStyleType="text/css" height="412px" preserveAspectRatio="none" style="width:5399px;height:412px;background:#FFFFFF;" version="1.1" viewBox="0 0 5399 412" width="5399px" zoomAndPan="magnify"><defs><filter height="300%" id="f14re3jtbkn07r" width="300%" x="-1" y="-1"><feGaussianBlur result="blurOut" stdDeviation="2.0"/><feColorMatrix in="blurOut" result="blurOut2" type="matrix" values="0 0 0 0 0 0 0 0 0 0 0 0 0 0 0 0 0 0 .4 0"/><feOffset dx="4.0" dy="4.0" in="blurOut2" result="blurOut3"/><feBlend in="SourceGraphic" in2="blurOut3" mode="normal"/></filter></defs><g><!--MD5=[cb0233a4dbc2ea449d09de5932f57591]
cluster com.company--><polygon fill="#FFFFFF" filter="url(#f14re3jtbkn07r)" points="16,6,117,6,124,29.6094,5382,29.6094,5382,405,16,405,16,6" style="stroke:#000000;stroke-width:1.5;"/><line style="stroke:#000000;stroke-width:1.5;" x1="16" x2="124" y1="29.6094" y2="29.6094"/><text fill="#000000" font-family="sans-serif" font-size="14" font-weight="bold" lengthAdjust="spacing" textLength="95" x="20" y="22.5332">com.company</text><!--MD5=[e540b54f8bb0d70f7f40aa023dfdb5f5]
class com.company.Double_Team--><rect codeLine="1" fill="#FEFECE" filter="url(#f14re3jtbkn07r)" height="103.3438" id="com.company.Double_Team" style="stroke:#A80036;stroke-width:1.5;" width="241" x="4140.5" y="164"/><ellipse cx="4217.25" cy="180" fill="#ADD1B2" rx="11" ry="11" style="stroke:#A80036;stroke-width:1.0;"/><path d="M4219.25,176.5 Q4219.4531,176 4219.6875,175.75 Q4219.9219,175.5 4220.1875,175.5 Q4220.6563,175.5 4220.9531,175.7813 Q4221.25,176.0625 4221.25,176.7188 L4221.25,178.2813 Q4221.25,178.9375 4220.9688,179.2188 Q4220.6875,179.5 4220.25,179.5 Q4219.8594,179.5 4219.6094,179.3281 Q4219.3594,179.1563 4219.25,178.7031 Q4219.2031,178.3906 4219.0313,178.2188 Q4218.7188,177.8906 4218.1563,177.7031 Q4217.5938,177.5 4217.0313,177.5 Q4216.3281,177.5 4215.7344,177.7813 Q4215.1563,178.0625 4214.7031,178.6875 Q4214.25,179.3125 4214.25,180.1719 L4214.25,181.0938 Q4214.25,182.125 4215.0938,182.8125 Q4215.9375,183.5 4217.4375,183.5 Q4218.3281,183.5 4218.9531,183.2969 Q4219.3125,183.1875 4219.7188,182.8281 Q4219.9844,182.625 4220.125,182.5625 Q4220.2656,182.5 4220.4375,182.5 Q4220.7656,182.5 4221,182.7656 Q4221.25,183.0156 4221.25,183.375 Q4221.25,183.7188 4220.9063,184.125 Q4220.4063,184.7188 4219.6094,185.0469 Q4218.5625,185.5 4217.2813,185.5 Q4215.7813,185.5 4214.5781,184.9063 Q4213.6094,184.4375 4212.9219,183.4219 Q4212.25,182.4063 4212.25,181.2031 L4212.25,180.1094 Q4212.25,178.8594 4212.8438,177.7656 Q4213.4531,176.6719 4214.5,176.0938 Q4215.5625,175.5 4216.75,175.5 Q4217.4688,175.5 4218.0938,175.75 Q4218.7188,176 4219.25,176.5 Z " fill="#000000"/><text fill="#000000" font-family="sans-serif" font-size="12" lengthAdjust="spacing" textLength="79" x="4237.75" y="184.9102">Double_Team</text><line style="stroke:#A80036;stroke-width:1.5;" x1="4141.5" x2="4380.5" y1="196" y2="196"/><line style="stroke:#A80036;stroke-width:1.5;" x1="4141.5" x2="4380.5" y1="204" y2="204"/><ellipse cx="4151.5" cy="215" fill="#84BE84" rx="3" ry="3" style="stroke:#038048;stroke-width:1.0;"/><text fill="#000000" font-family="sans-serif" font-size="11" lengthAdjust="spacing" textLength="120" x="4160.5" y="219.4189">«Create» Double_Team()</text><polygon fill="#FFFF44" points="4151.5,223.8359,4155.5,227.8359,4151.5,231.8359,4147.5,227.8359" style="stroke:#B38D22;stroke-width:1.0;"/><text fill="#000000" font-family="sans-serif" font-size="11" lengthAdjust="spacing" textLength="215" x="4160.5" y="233.2549">boolean checkAccuracy(Pokemon,Pokemon)</text><polygon fill="#FFFF44" points="4151.5,237.6719,4155.5,241.6719,4151.5,245.6719,4147.5,241.6719" style="stroke:#B38D22;stroke-width:1.0;"/><text fill="#000000" font-family="sans-serif" font-size="11" lengthAdjust="spacing" textLength="154" x="4160.5" y="247.0908">void applySelfEffects(Pokemon)</text><polygon fill="#FFFF44" points="4151.5,251.5078,4155.5,255.5078,4151.5,259.5078,4147.5,255.5078" style="stroke:#B38D22;stroke-width:1.0;"/><text fill="#000000" font-family="sans-serif" font-size="11" lengthAdjust="spacing" textLength="81" x="4160.5" y="260.9268">String describe()</text><!--MD5=[3b70848532c20db3022e9f2f8b31c828]
class com.company.Kakuna--><rect codeLine="7" fill="#FEFECE" filter="url(#f14re3jtbkn07r)" height="61.8359" id="com.company.Kakuna" style="stroke:#A80036;stroke-width:1.5;" width="159" x="2426.5" y="184.5"/><ellipse cx="2480.75" cy="200.5" fill="#ADD1B2" rx="11" ry="11" style="stroke:#A80036;stroke-width:1.0;"/><path d="M2482.75,197 Q2482.9531,196.5 2483.1875,196.25 Q2483.4219,196 2483.6875,196 Q2484.1563,196 2484.4531,196.2813 Q2484.75,196.5625 2484.75,197.2188 L2484.75,198.7813 Q2484.75,199.4375 2484.4688,199.7188 Q2484.1875,200 2483.75,200 Q2483.3594,200 2483.1094,199.8281 Q2482.8594,199.6563 2482.75,199.2031 Q2482.7031,198.8906 2482.5313,198.7188 Q2482.2188,198.3906 2481.6563,198.2031 Q2481.0938,198 2480.5313,198 Q2479.8281,198 2479.2344,198.2813 Q2478.6563,198.5625 2478.2031,199.1875 Q2477.75,199.8125 2477.75,200.6719 L2477.75,201.5938 Q2477.75,202.625 2478.5938,203.3125 Q2479.4375,204 2480.9375,204 Q2481.8281,204 2482.4531,203.7969 Q2482.8125,203.6875 2483.2188,203.3281 Q2483.4844,203.125 2483.625,203.0625 Q2483.7656,203 2483.9375,203 Q2484.2656,203 2484.5,203.2656 Q2484.75,203.5156 2484.75,203.875 Q2484.75,204.2188 2484.4063,204.625 Q2483.9063,205.2188 2483.1094,205.5469 Q2482.0625,206 2480.7813,206 Q2479.2813,206 2478.0781,205.4063 Q2477.1094,204.9375 2476.4219,203.9219 Q2475.75,202.9063 2475.75,201.7031 L2475.75,200.6094 Q2475.75,199.3594 2476.3438,198.2656 Q2476.9531,197.1719 2478,196.5938 Q2479.0625,196 2480.25,196 Q2480.9688,196 2481.5938,196.25 Q2482.2188,196.5 2482.75,197 Z " fill="#000000"/><text fill="#000000" font-family="sans-serif" font-size="12" lengthAdjust="spacing" textLength="42" x="2501.25" y="205.4102">Kakuna</text><line style="stroke:#A80036;stroke-width:1.5;" x1="2427.5" x2="2584.5" y1="216.5" y2="216.5"/><line style="stroke:#A80036;stroke-width:1.5;" x1="2427.5" x2="2584.5" y1="224.5" y2="224.5"/><ellipse cx="2437.5" cy="235.5" fill="#84BE84" rx="3" ry="3" style="stroke:#038048;stroke-width:1.0;"/><text fill="#000000" font-family="sans-serif" font-size="11" lengthAdjust="spacing" textLength="133" x="2446.5" y="239.9189">«Create» Kakuna(String,int)</text><!--MD5=[317b48d080075abfaa6e95bd830cebfa]
class com.company.Work_Up--><rect codeLine="10" fill="#FEFECE" filter="url(#f14re3jtbkn07r)" height="103.3438" id="com.company.Work_Up" style="stroke:#A80036;stroke-width:1.5;" width="241" x="4416.5" y="164"/><ellipse cx="4507.25" cy="180" fill="#ADD1B2" rx="11" ry="11" style="stroke:#A80036;stroke-width:1.0;"/><path d="M4509.25,176.5 Q4509.4531,176 4509.6875,175.75 Q4509.9219,175.5 4510.1875,175.5 Q4510.6563,175.5 4510.9531,175.7813 Q4511.25,176.0625 4511.25,176.7188 L4511.25,178.2813 Q4511.25,178.9375 4510.9688,179.2188 Q4510.6875,179.5 4510.25,179.5 Q4509.8594,179.5 4509.6094,179.3281 Q4509.3594,179.1563 4509.25,178.7031 Q4509.2031,178.3906 4509.0313,178.2188 Q4508.7188,177.8906 4508.1563,177.7031 Q4507.5938,177.5 4507.0313,177.5 Q4506.3281,177.5 4505.7344,177.7813 Q4505.1563,178.0625 4504.7031,178.6875 Q4504.25,179.3125 4504.25,180.1719 L4504.25,181.0938 Q4504.25,182.125 4505.0938,182.8125 Q4505.9375,183.5 4507.4375,183.5 Q4508.3281,183.5 4508.9531,183.2969 Q4509.3125,183.1875 4509.7188,182.8281 Q4509.9844,182.625 4510.125,182.5625 Q4510.2656,182.5 4510.4375,182.5 Q4510.7656,182.5 4511,182.7656 Q4511.25,183.0156 4511.25,183.375 Q4511.25,183.7188 4510.9063,184.125 Q4510.4063,184.7188 4509.6094,185.0469 Q4508.5625,185.5 4507.2813,185.5 Q4505.7813,185.5 4504.5781,184.9063 Q4503.6094,184.4375 4502.9219,183.4219 Q4502.25,182.4063 4502.25,181.2031 L4502.25,180.1094 Q4502.25,178.8594 4502.8438,177.7656 Q4503.4531,176.6719 4504.5,176.0938 Q4505.5625,175.5 4506.75,175.5 Q4507.4688,175.5 4508.0938,175.75 Q4508.7188,176 4509.25,176.5 Z " fill="#000000"/><text fill="#000000" font-family="sans-serif" font-size="12" lengthAdjust="spacing" textLength="51" x="4527.75" y="184.9102">Work_Up</text><line style="stroke:#A80036;stroke-width:1.5;" x1="4417.5" x2="4656.5" y1="196" y2="196"/><line style="stroke:#A80036;stroke-width:1.5;" x1="4417.5" x2="4656.5" y1="204" y2="204"/><ellipse cx="4427.5" cy="215" fill="#84BE84" rx="3" ry="3" style="stroke:#038048;stroke-width:1.0;"/><text fill="#000000" font-family="sans-serif" font-size="11" lengthAdjust="spacing" textLength="99" x="4436.5" y="219.4189">«Create» Work_Up()</text><polygon fill="#FFFF44" points="4427.5,223.8359,4431.5,227.8359,4427.5,231.8359,4423.5,227.8359" style="stroke:#B38D22;stroke-width:1.0;"/><text fill="#000000" font-family="sans-serif" font-size="11" lengthAdjust="spacing" textLength="215" x="4436.5" y="233.2549">boolean checkAccuracy(Pokemon,Pokemon)</text><polygon fill="#FFFF44" points="4427.5,237.6719,4431.5,241.6719,4427.5,245.6719,4423.5,241.6719" style="stroke:#B38D22;stroke-width:1.0;"/><text fill="#000000" font-family="sans-serif" font-size="11" lengthAdjust="spacing" textLength="154" x="4436.5" y="247.0908">void applySelfEffects(Pokemon)</text><polygon fill="#FFFF44" points="4427.5,251.5078,4431.5,255.5078,4427.5,259.5078,4423.5,255.5078" style="stroke:#B38D22;stroke-width:1.0;"/><text fill="#000000" font-family="sans-serif" font-size="11" lengthAdjust="spacing" textLength="81" x="4436.5" y="260.9268">String describe()</text><!--MD5=[8c29daead3c57475ed44276ef034f5dc]
class com.company.Flaaffy--><rect codeLine="16" fill="#FEFECE" filter="url(#f14re3jtbkn07r)" height="61.8359" id="com.company.Flaaffy" style="stroke:#A80036;stroke-width:1.5;" width="157" x="2620.5" y="184.5"/><ellipse cx="2677.25" cy="200.5" fill="#ADD1B2" rx="11" ry="11" style="stroke:#A80036;stroke-width:1.0;"/><path d="M2679.25,197 Q2679.4531,196.5 2679.6875,196.25 Q2679.9219,196 2680.1875,196 Q2680.6563,196 2680.9531,196.2813 Q2681.25,196.5625 2681.25,197.2188 L2681.25,198.7813 Q2681.25,199.4375 2680.9688,199.7188 Q2680.6875,200 2680.25,200 Q2679.8594,200 2679.6094,199.8281 Q2679.3594,199.6563 2679.25,199.2031 Q2679.2031,198.8906 2679.0313,198.7188 Q2678.7188,198.3906 2678.1563,198.2031 Q2677.5938,198 2677.0313,198 Q2676.3281,198 2675.7344,198.2813 Q2675.1563,198.5625 2674.7031,199.1875 Q2674.25,199.8125 2674.25,200.6719 L2674.25,201.5938 Q2674.25,202.625 2675.0938,203.3125 Q2675.9375,204 2677.4375,204 Q2678.3281,204 2678.9531,203.7969 Q2679.3125,203.6875 2679.7188,203.3281 Q2679.9844,203.125 2680.125,203.0625 Q2680.2656,203 2680.4375,203 Q2680.7656,203 2681,203.2656 Q2681.25,203.5156 2681.25,203.875 Q2681.25,204.2188 2680.9063,204.625 Q2680.4063,205.2188 2679.6094,205.5469 Q2678.5625,206 2677.2813,206 Q2675.7813,206 2674.5781,205.4063 Q2673.6094,204.9375 2672.9219,203.9219 Q2672.25,202.9063 2672.25,201.7031 L2672.25,200.6094 Q2672.25,199.3594 2672.8438,198.2656 Q2673.4531,197.1719 2674.5,196.5938 Q2675.5625,196 2676.75,196 Q2677.4688,196 2678.0938,196.25 Q2678.7188,196.5 2679.25,197 Z " fill="#000000"/><text fill="#000000" font-family="sans-serif" font-size="12" lengthAdjust="spacing" textLength="35" x="2697.75" y="205.4102">Flaaffy</text><line style="stroke:#A80036;stroke-width:1.5;" x1="2621.5" x2="2776.5" y1="216.5" y2="216.5"/><line style="stroke:#A80036;stroke-width:1.5;" x1="2621.5" x2="2776.5" y1="224.5" y2="224.5"/><ellipse cx="2631.5" cy="235.5" fill="#84BE84" rx="3" ry="3" style="stroke:#038048;stroke-width:1.0;"/><text fill="#000000" font-family="sans-serif" font-size="11" lengthAdjust="spacing" textLength="131" x="2640.5" y="239.9189">«Create» Flaaffy(String,int)</text><!--MD5=[be301621794dac650f4f75767f413b22]
class com.company.Clefairy--><rect codeLine="19" fill="#FEFECE" filter="url(#f14re3jtbkn07r)" height="61.8359" id="com.company.Clefairy" style="stroke:#A80036;stroke-width:1.5;" width="160" x="2714" y="327"/><ellipse cx="2769.25" cy="343" fill="#ADD1B2" rx="11" ry="11" style="stroke:#A80036;stroke-width:1.0;"/><path d="M2771.25,339.5 Q2771.4531,339 2771.6875,338.75 Q2771.9219,338.5 2772.1875,338.5 Q2772.6563,338.5 2772.9531,338.7813 Q2773.25,339.0625 2773.25,339.7188 L2773.25,341.2813 Q2773.25,341.9375 2772.9688,342.2188 Q2772.6875,342.5 2772.25,342.5 Q2771.8594,342.5 2771.6094,342.3281 Q2771.3594,342.1563 2771.25,341.7031 Q2771.2031,341.3906 2771.0313,341.2188 Q2770.7188,340.8906 2770.1563,340.7031 Q2769.5938,340.5 2769.0313,340.5 Q2768.3281,340.5 2767.7344,340.7813 Q2767.1563,341.0625 2766.7031,341.6875 Q2766.25,342.3125 2766.25,343.1719 L2766.25,344.0938 Q2766.25,345.125 2767.0938,345.8125 Q2767.9375,346.5 2769.4375,346.5 Q2770.3281,346.5 2770.9531,346.2969 Q2771.3125,346.1875 2771.7188,345.8281 Q2771.9844,345.625 2772.125,345.5625 Q2772.2656,345.5 2772.4375,345.5 Q2772.7656,345.5 2773,345.7656 Q2773.25,346.0156 2773.25,346.375 Q2773.25,346.7188 2772.9063,347.125 Q2772.4063,347.7188 2771.6094,348.0469 Q2770.5625,348.5 2769.2813,348.5 Q2767.7813,348.5 2766.5781,347.9063 Q2765.6094,347.4375 2764.9219,346.4219 Q2764.25,345.4063 2764.25,344.2031 L2764.25,343.1094 Q2764.25,341.8594 2764.8438,340.7656 Q2765.4531,339.6719 2766.5,339.0938 Q2767.5625,338.5 2768.75,338.5 Q2769.4688,338.5 2770.0938,338.75 Q2770.7188,339 2771.25,339.5 Z " fill="#000000"/><text fill="#000000" font-family="sans-serif" font-size="12" lengthAdjust="spacing" textLength="41" x="2789.75" y="347.9102">Clefairy</text><line style="stroke:#A80036;stroke-width:1.5;" x1="2715" x2="2873" y1="359" y2="359"/><line style="stroke:#A80036;stroke-width:1.5;" x1="2715" x2="2873" y1="367" y2="367"/><ellipse cx="2725" cy="378" fill="#84BE84" rx="3" ry="3" style="stroke:#038048;stroke-width:1.0;"/><text fill="#000000" font-family="sans-serif" font-size="11" lengthAdjust="spacing" textLength="134" x="2734" y="382.4189">«Create» Clefairy(String,int)</text><!--MD5=[97ba16b640638ae1813e9b27ce850f11]
class com.company.Light_Screen--><rect codeLine="22" fill="#FEFECE" filter="url(#f14re3jtbkn07r)" height="103.3438" id="com.company.Light_Screen" style="stroke:#A80036;stroke-width:1.5;" width="241" x="4692.5" y="164"/><ellipse cx="4772.25" cy="180" fill="#ADD1B2" rx="11" ry="11" style="stroke:#A80036;stroke-width:1.0;"/><path d="M4774.25,176.5 Q4774.4531,176 4774.6875,175.75 Q4774.9219,175.5 4775.1875,175.5 Q4775.6563,175.5 4775.9531,175.7813 Q4776.25,176.0625 4776.25,176.7188 L4776.25,178.2813 Q4776.25,178.9375 4775.9688,179.2188 Q4775.6875,179.5 4775.25,179.5 Q4774.8594,179.5 4774.6094,179.3281 Q4774.3594,179.1563 4774.25,178.7031 Q4774.2031,178.3906 4774.0313,178.2188 Q4773.7188,177.8906 4773.1563,177.7031 Q4772.5938,177.5 4772.0313,177.5 Q4771.3281,177.5 4770.7344,177.7813 Q4770.1563,178.0625 4769.7031,178.6875 Q4769.25,179.3125 4769.25,180.1719 L4769.25,181.0938 Q4769.25,182.125 4770.0938,182.8125 Q4770.9375,183.5 4772.4375,183.5 Q4773.3281,183.5 4773.9531,183.2969 Q4774.3125,183.1875 4774.7188,182.8281 Q4774.9844,182.625 4775.125,182.5625 Q4775.2656,182.5 4775.4375,182.5 Q4775.7656,182.5 4776,182.7656 Q4776.25,183.0156 4776.25,183.375 Q4776.25,183.7188 4775.9063,184.125 Q4775.4063,184.7188 4774.6094,185.0469 Q4773.5625,185.5 4772.2813,185.5 Q4770.7813,185.5 4769.5781,184.9063 Q4768.6094,184.4375 4767.9219,183.4219 Q4767.25,182.4063 4767.25,181.2031 L4767.25,180.1094 Q4767.25,178.8594 4767.8438,177.7656 Q4768.4531,176.6719 4769.5,176.0938 Q4770.5625,175.5 4771.75,175.5 Q4772.4688,175.5 4773.0938,175.75 Q4773.7188,176 4774.25,176.5 Z " fill="#000000"/><text fill="#000000" font-family="sans-serif" font-size="12" lengthAdjust="spacing" textLength="73" x="4792.75" y="184.9102">Light_Screen</text><line style="stroke:#A80036;stroke-width:1.5;" x1="4693.5" x2="4932.5" y1="196" y2="196"/><line style="stroke:#A80036;stroke-width:1.5;" x1="4693.5" x2="4932.5" y1="204" y2="204"/><ellipse cx="4703.5" cy="215" fill="#84BE84" rx="3" ry="3" style="stroke:#038048;stroke-width:1.0;"/><text fill="#000000" font-family="sans-serif" font-size="11" lengthAdjust="spacing" textLength="119" x="4712.5" y="219.4189">«Create» Light_Screen()</text><polygon fill="#FFFF44" points="4703.5,223.8359,4707.5,227.8359,4703.5,231.8359,4699.5,227.8359" style="stroke:#B38D22;stroke-width:1.0;"/><text fill="#000000" font-family="sans-serif" font-size="11" lengthAdjust="spacing" textLength="215" x="4712.5" y="233.2549">boolean checkAccuracy(Pokemon,Pokemon)</text><polygon fill="#FFFF44" points="4703.5,237.6719,4707.5,241.6719,4703.5,245.6719,4699.5,241.6719" style="stroke:#B38D22;stroke-width:1.0;"/><text fill="#000000" font-family="sans-serif" font-size="11" lengthAdjust="spacing" textLength="154" x="4712.5" y="247.0908">void applySelfEffects(Pokemon)</text><polygon fill="#FFFF44" points="4703.5,251.5078,4707.5,255.5078,4703.5,259.5078,4699.5,255.5078" style="stroke:#B38D22;stroke-width:1.0;"/><text fill="#000000" font-family="sans-serif" font-size="11" lengthAdjust="spacing" textLength="81" x="4712.5" y="260.9268">String describe()</text><!--MD5=[c21004d500bf2011be2c2db2c19e70b2]
class com.company.Aerial_Ace--><rect codeLine="28" fill="#FEFECE" filter="url(#f14re3jtbkn07r)" height="89.5078" id="com.company.Aerial_Ace" style="stroke:#A80036;stroke-width:1.5;" width="241" x="874.5" y="170.5"/><ellipse cx="961.75" cy="186.5" fill="#ADD1B2" rx="11" ry="11" style="stroke:#A80036;stroke-width:1.0;"/><path d="M963.75,183 Q963.9531,182.5 964.1875,182.25 Q964.4219,182 964.6875,182 Q965.1563,182 965.4531,182.2813 Q965.75,182.5625 965.75,183.2188 L965.75,184.7813 Q965.75,185.4375 965.4688,185.7188 Q965.1875,186 964.75,186 Q964.3594,186 964.1094,185.8281 Q963.8594,185.6563 963.75,185.2031 Q963.7031,184.8906 963.5313,184.7188 Q963.2188,184.3906 962.6563,184.2031 Q962.0938,184 961.5313,184 Q960.8281,184 960.2344,184.2813 Q959.6563,184.5625 959.2031,185.1875 Q958.75,185.8125 958.75,186.6719 L958.75,187.5938 Q958.75,188.625 959.5938,189.3125 Q960.4375,190 961.9375,190 Q962.8281,190 963.4531,189.7969 Q963.8125,189.6875 964.2188,189.3281 Q964.4844,189.125 964.625,189.0625 Q964.7656,189 964.9375,189 Q965.2656,189 965.5,189.2656 Q965.75,189.5156 965.75,189.875 Q965.75,190.2188 965.4063,190.625 Q964.9063,191.2188 964.1094,191.5469 Q963.0625,192 961.7813,192 Q960.2813,192 959.0781,191.4063 Q958.1094,190.9375 957.4219,189.9219 Q956.75,188.9063 956.75,187.7031 L956.75,186.6094 Q956.75,185.3594 957.3438,184.2656 Q957.9531,183.1719 959,182.5938 Q960.0625,182 961.25,182 Q961.9688,182 962.5938,182.25 Q963.2188,182.5 963.75,183 Z " fill="#000000"/><text fill="#000000" font-family="sans-serif" font-size="12" lengthAdjust="spacing" textLength="58" x="982.25" y="191.4102">Aerial_Ace</text><line style="stroke:#A80036;stroke-width:1.5;" x1="875.5" x2="1114.5" y1="202.5" y2="202.5"/><line style="stroke:#A80036;stroke-width:1.5;" x1="875.5" x2="1114.5" y1="210.5" y2="210.5"/><ellipse cx="885.5" cy="221.5" fill="#84BE84" rx="3" ry="3" style="stroke:#038048;stroke-width:1.0;"/><text fill="#000000" font-family="sans-serif" font-size="11" lengthAdjust="spacing" textLength="109" x="894.5" y="225.9189">«Create» Aerial_Ace()</text><polygon fill="#FFFF44" points="885.5,230.3359,889.5,234.3359,885.5,238.3359,881.5,234.3359" style="stroke:#B38D22;stroke-width:1.0;"/><text fill="#000000" font-family="sans-serif" font-size="11" lengthAdjust="spacing" textLength="215" x="894.5" y="239.7549">boolean checkAccuracy(Pokemon,Pokemon)</text><polygon fill="#FFFF44" points="885.5,244.1719,889.5,248.1719,885.5,252.1719,881.5,248.1719" style="stroke:#B38D22;stroke-width:1.0;"/><text fill="#000000" font-family="sans-serif" font-size="11" lengthAdjust="spacing" textLength="81" x="894.5" y="253.5908">String describe()</text><!--MD5=[8d514ff6d13608300e130086d142e680]
class com.company.Cleffa--><rect codeLine="33" fill="#FEFECE" filter="url(#f14re3jtbkn07r)" height="61.8359" id="com.company.Cleffa" style="stroke:#A80036;stroke-width:1.5;" width="152" x="2813" y="184.5"/><ellipse cx="2868.75" cy="200.5" fill="#ADD1B2" rx="11" ry="11" style="stroke:#A80036;stroke-width:1.0;"/><path d="M2870.75,197 Q2870.9531,196.5 2871.1875,196.25 Q2871.4219,196 2871.6875,196 Q2872.1563,196 2872.4531,196.2813 Q2872.75,196.5625 2872.75,197.2188 L2872.75,198.7813 Q2872.75,199.4375 2872.4688,199.7188 Q2872.1875,200 2871.75,200 Q2871.3594,200 2871.1094,199.8281 Q2870.8594,199.6563 2870.75,199.2031 Q2870.7031,198.8906 2870.5313,198.7188 Q2870.2188,198.3906 2869.6563,198.2031 Q2869.0938,198 2868.5313,198 Q2867.8281,198 2867.2344,198.2813 Q2866.6563,198.5625 2866.2031,199.1875 Q2865.75,199.8125 2865.75,200.6719 L2865.75,201.5938 Q2865.75,202.625 2866.5938,203.3125 Q2867.4375,204 2868.9375,204 Q2869.8281,204 2870.4531,203.7969 Q2870.8125,203.6875 2871.2188,203.3281 Q2871.4844,203.125 2871.625,203.0625 Q2871.7656,203 2871.9375,203 Q2872.2656,203 2872.5,203.2656 Q2872.75,203.5156 2872.75,203.875 Q2872.75,204.2188 2872.4063,204.625 Q2871.9063,205.2188 2871.1094,205.5469 Q2870.0625,206 2868.7813,206 Q2867.2813,206 2866.0781,205.4063 Q2865.1094,204.9375 2864.4219,203.9219 Q2863.75,202.9063 2863.75,201.7031 L2863.75,200.6094 Q2863.75,199.3594 2864.3438,198.2656 Q2864.9531,197.1719 2866,196.5938 Q2867.0625,196 2868.25,196 Q2868.9688,196 2869.5938,196.25 Q2870.2188,196.5 2870.75,197 Z " fill="#000000"/><text fill="#000000" font-family="sans-serif" font-size="12" lengthAdjust="spacing" textLength="32" x="2889.25" y="205.4102">Cleffa</text><line style="stroke:#A80036;stroke-width:1.5;" x1="2814" x2="2964" y1="216.5" y2="216.5"/><line style="stroke:#A80036;stroke-width:1.5;" x1="2814" x2="2964" y1="224.5" y2="224.5"/><ellipse cx="2824" cy="235.5" fill="#84BE84" rx="3" ry="3" style="stroke:#038048;stroke-width:1.0;"/><text fill="#000000" font-family="sans-serif" font-size="11" lengthAdjust="spacing" textLength="126" x="2833" y="239.9189">«Create» Cleffa(String,int)</text><!--MD5=[f9880080a77199dc7cd02151a16263d3]
class com.company.Horn_Attack--><rect codeLine="36" fill="#FEFECE" filter="url(#f14re3jtbkn07r)" height="75.6719" id="com.company.Horn_Attack" style="stroke:#A80036;stroke-width:1.5;" width="141" x="1150.5" y="177.5"/><ellipse cx="1184.85" cy="193.5" fill="#ADD1B2" rx="11" ry="11" style="stroke:#A80036;stroke-width:1.0;"/><path d="M1186.85,190 Q1187.0531,189.5 1187.2875,189.25 Q1187.5219,189 1187.7875,189 Q1188.2563,189 1188.5531,189.2813 Q1188.85,189.5625 1188.85,190.2188 L1188.85,191.7813 Q1188.85,192.4375 1188.5688,192.7188 Q1188.2875,193 1187.85,193 Q1187.4594,193 1187.2094,192.8281 Q1186.9594,192.6563 1186.85,192.2031 Q1186.8031,191.8906 1186.6313,191.7188 Q1186.3188,191.3906 1185.7563,191.2031 Q1185.1938,191 1184.6313,191 Q1183.9281,191 1183.3344,191.2813 Q1182.7563,191.5625 1182.3031,192.1875 Q1181.85,192.8125 1181.85,193.6719 L1181.85,194.5938 Q1181.85,195.625 1182.6938,196.3125 Q1183.5375,197 1185.0375,197 Q1185.9281,197 1186.5531,196.7969 Q1186.9125,196.6875 1187.3188,196.3281 Q1187.5844,196.125 1187.725,196.0625 Q1187.8656,196 1188.0375,196 Q1188.3656,196 1188.6,196.2656 Q1188.85,196.5156 1188.85,196.875 Q1188.85,197.2188 1188.5063,197.625 Q1188.0063,198.2188 1187.2094,198.5469 Q1186.1625,199 1184.8813,199 Q1183.3813,199 1182.1781,198.4063 Q1181.2094,197.9375 1180.5219,196.9219 Q1179.85,195.9063 1179.85,194.7031 L1179.85,193.6094 Q1179.85,192.3594 1180.4438,191.2656 Q1181.0531,190.1719 1182.1,189.5938 Q1183.1625,189 1184.35,189 Q1185.0688,189 1185.6938,189.25 Q1186.3188,189.5 1186.85,190 Z " fill="#000000"/><text fill="#000000" font-family="sans-serif" font-size="12" lengthAdjust="spacing" textLength="66" x="1203.15" y="198.4102">Horn_Attack</text><line style="stroke:#A80036;stroke-width:1.5;" x1="1151.5" x2="1290.5" y1="209.5" y2="209.5"/><line style="stroke:#A80036;stroke-width:1.5;" x1="1151.5" x2="1290.5" y1="217.5" y2="217.5"/><ellipse cx="1161.5" cy="228.5" fill="#84BE84" rx="3" ry="3" style="stroke:#038048;stroke-width:1.0;"/><text fill="#000000" font-family="sans-serif" font-size="11" lengthAdjust="spacing" textLength="115" x="1170.5" y="232.9189">«Create» Horn_Attack()</text><polygon fill="#FFFF44" points="1161.5,237.3359,1165.5,241.3359,1161.5,245.3359,1157.5,241.3359" style="stroke:#B38D22;stroke-width:1.0;"/><text fill="#000000" font-family="sans-serif" font-size="11" lengthAdjust="spacing" textLength="81" x="1170.5" y="246.7549">String describe()</text><!--MD5=[acf8ed975e066b8db1a35ced08daa1f1]
class com.company.Low_Sweep--><rect codeLine="40" fill="#FEFECE" filter="url(#f14re3jtbkn07r)" height="89.5078" id="com.company.Low_Sweep" style="stroke:#A80036;stroke-width:1.5;" width="181" x="1326.5" y="170.5"/><ellipse cx="1378.75" cy="186.5" fill="#ADD1B2" rx="11" ry="11" style="stroke:#A80036;stroke-width:1.0;"/><path d="M1380.75,183 Q1380.9531,182.5 1381.1875,182.25 Q1381.4219,182 1381.6875,182 Q1382.1563,182 1382.4531,182.2813 Q1382.75,182.5625 1382.75,183.2188 L1382.75,184.7813 Q1382.75,185.4375 1382.4688,185.7188 Q1382.1875,186 1381.75,186 Q1381.3594,186 1381.1094,185.8281 Q1380.8594,185.6563 1380.75,185.2031 Q1380.7031,184.8906 1380.5313,184.7188 Q1380.2188,184.3906 1379.6563,184.2031 Q1379.0938,184 1378.5313,184 Q1377.8281,184 1377.2344,184.2813 Q1376.6563,184.5625 1376.2031,185.1875 Q1375.75,185.8125 1375.75,186.6719 L1375.75,187.5938 Q1375.75,188.625 1376.5938,189.3125 Q1377.4375,190 1378.9375,190 Q1379.8281,190 1380.4531,189.7969 Q1380.8125,189.6875 1381.2188,189.3281 Q1381.4844,189.125 1381.625,189.0625 Q1381.7656,189 1381.9375,189 Q1382.2656,189 1382.5,189.2656 Q1382.75,189.5156 1382.75,189.875 Q1382.75,190.2188 1382.4063,190.625 Q1381.9063,191.2188 1381.1094,191.5469 Q1380.0625,192 1378.7813,192 Q1377.2813,192 1376.0781,191.4063 Q1375.1094,190.9375 1374.4219,189.9219 Q1373.75,188.9063 1373.75,187.7031 L1373.75,186.6094 Q1373.75,185.3594 1374.3438,184.2656 Q1374.9531,183.1719 1376,182.5938 Q1377.0625,182 1378.25,182 Q1378.9688,182 1379.5938,182.25 Q1380.2188,182.5 1380.75,183 Z " fill="#000000"/><text fill="#000000" font-family="sans-serif" font-size="12" lengthAdjust="spacing" textLength="68" x="1399.25" y="191.4102">Low_Sweep</text><line style="stroke:#A80036;stroke-width:1.5;" x1="1327.5" x2="1506.5" y1="202.5" y2="202.5"/><line style="stroke:#A80036;stroke-width:1.5;" x1="1327.5" x2="1506.5" y1="210.5" y2="210.5"/><ellipse cx="1337.5" cy="221.5" fill="#84BE84" rx="3" ry="3" style="stroke:#038048;stroke-width:1.0;"/><text fill="#000000" font-family="sans-serif" font-size="11" lengthAdjust="spacing" textLength="118" x="1346.5" y="225.9189">«Create» Low_Sweep()</text><polygon fill="#FFFF44" points="1337.5,230.3359,1341.5,234.3359,1337.5,238.3359,1333.5,234.3359" style="stroke:#B38D22;stroke-width:1.0;"/><text fill="#000000" font-family="sans-serif" font-size="11" lengthAdjust="spacing" textLength="155" x="1346.5" y="239.7549">void applyOppEffects(Pokemon)</text><polygon fill="#FFFF44" points="1337.5,244.1719,1341.5,248.1719,1337.5,252.1719,1333.5,248.1719" style="stroke:#B38D22;stroke-width:1.0;"/><text fill="#000000" font-family="sans-serif" font-size="11" lengthAdjust="spacing" textLength="81" x="1346.5" y="253.5908">String describe()</text><!--MD5=[e38a9d0e2dccf6b31c307ea6de561b9d]
class com.company.Clefable--><rect codeLine="45" fill="#FEFECE" filter="url(#f14re3jtbkn07r)" height="61.8359" id="com.company.Clefable" style="stroke:#A80036;stroke-width:1.5;" width="162" x="2909" y="327"/><ellipse cx="2962.75" cy="343" fill="#ADD1B2" rx="11" ry="11" style="stroke:#A80036;stroke-width:1.0;"/><path d="M2964.75,339.5 Q2964.9531,339 2965.1875,338.75 Q2965.4219,338.5 2965.6875,338.5 Q2966.1563,338.5 2966.4531,338.7813 Q2966.75,339.0625 2966.75,339.7188 L2966.75,341.2813 Q2966.75,341.9375 2966.4688,342.2188 Q2966.1875,342.5 2965.75,342.5 Q2965.3594,342.5 2965.1094,342.3281 Q2964.8594,342.1563 2964.75,341.7031 Q2964.7031,341.3906 2964.5313,341.2188 Q2964.2188,340.8906 2963.6563,340.7031 Q2963.0938,340.5 2962.5313,340.5 Q2961.8281,340.5 2961.2344,340.7813 Q2960.6563,341.0625 2960.2031,341.6875 Q2959.75,342.3125 2959.75,343.1719 L2959.75,344.0938 Q2959.75,345.125 2960.5938,345.8125 Q2961.4375,346.5 2962.9375,346.5 Q2963.8281,346.5 2964.4531,346.2969 Q2964.8125,346.1875 2965.2188,345.8281 Q2965.4844,345.625 2965.625,345.5625 Q2965.7656,345.5 2965.9375,345.5 Q2966.2656,345.5 2966.5,345.7656 Q2966.75,346.0156 2966.75,346.375 Q2966.75,346.7188 2966.4063,347.125 Q2965.9063,347.7188 2965.1094,348.0469 Q2964.0625,348.5 2962.7813,348.5 Q2961.2813,348.5 2960.0781,347.9063 Q2959.1094,347.4375 2958.4219,346.4219 Q2957.75,345.4063 2957.75,344.2031 L2957.75,343.1094 Q2957.75,341.8594 2958.3438,340.7656 Q2958.9531,339.6719 2960,339.0938 Q2961.0625,338.5 2962.25,338.5 Q2962.9688,338.5 2963.5938,338.75 Q2964.2188,339 2964.75,339.5 Z " fill="#000000"/><text fill="#000000" font-family="sans-serif" font-size="12" lengthAdjust="spacing" textLength="46" x="2983.25" y="347.9102">Clefable</text><line style="stroke:#A80036;stroke-width:1.5;" x1="2910" x2="3070" y1="359" y2="359"/><line style="stroke:#A80036;stroke-width:1.5;" x1="2910" x2="3070" y1="367" y2="367"/><ellipse cx="2920" cy="378" fill="#84BE84" rx="3" ry="3" style="stroke:#038048;stroke-width:1.0;"/><text fill="#000000" font-family="sans-serif" font-size="11" lengthAdjust="spacing" textLength="136" x="2929" y="382.4189">«Create» Clefable(String,int)</text><!--MD5=[ce20dcc33329bdfd7ee7043797f9adb3]
class com.company.Beedrill--><rect codeLine="48" fill="#FEFECE" filter="url(#f14re3jtbkn07r)" height="61.8359" id="com.company.Beedrill" style="stroke:#A80036;stroke-width:1.5;" width="158" x="2427" y="327"/><ellipse cx="2480.75" cy="343" fill="#ADD1B2" rx="11" ry="11" style="stroke:#A80036;stroke-width:1.0;"/><path d="M2482.75,339.5 Q2482.9531,339 2483.1875,338.75 Q2483.4219,338.5 2483.6875,338.5 Q2484.1563,338.5 2484.4531,338.7813 Q2484.75,339.0625 2484.75,339.7188 L2484.75,341.2813 Q2484.75,341.9375 2484.4688,342.2188 Q2484.1875,342.5 2483.75,342.5 Q2483.3594,342.5 2483.1094,342.3281 Q2482.8594,342.1563 2482.75,341.7031 Q2482.7031,341.3906 2482.5313,341.2188 Q2482.2188,340.8906 2481.6563,340.7031 Q2481.0938,340.5 2480.5313,340.5 Q2479.8281,340.5 2479.2344,340.7813 Q2478.6563,341.0625 2478.2031,341.6875 Q2477.75,342.3125 2477.75,343.1719 L2477.75,344.0938 Q2477.75,345.125 2478.5938,345.8125 Q2479.4375,346.5 2480.9375,346.5 Q2481.8281,346.5 2482.4531,346.2969 Q2482.8125,346.1875 2483.2188,345.8281 Q2483.4844,345.625 2483.625,345.5625 Q2483.7656,345.5 2483.9375,345.5 Q2484.2656,345.5 2484.5,345.7656 Q2484.75,346.0156 2484.75,346.375 Q2484.75,346.7188 2484.4063,347.125 Q2483.9063,347.7188 2483.1094,348.0469 Q2482.0625,348.5 2480.7813,348.5 Q2479.2813,348.5 2478.0781,347.9063 Q2477.1094,347.4375 2476.4219,346.4219 Q2475.75,345.4063 2475.75,344.2031 L2475.75,343.1094 Q2475.75,341.8594 2476.3438,340.7656 Q2476.9531,339.6719 2478,339.0938 Q2479.0625,338.5 2480.25,338.5 Q2480.9688,338.5 2481.5938,338.75 Q2482.2188,339 2482.75,339.5 Z " fill="#000000"/><text fill="#000000" font-family="sans-serif" font-size="12" lengthAdjust="spacing" textLength="42" x="2501.25" y="347.9102">Beedrill</text><line style="stroke:#A80036;stroke-width:1.5;" x1="2428" x2="2584" y1="359" y2="359"/><line style="stroke:#A80036;stroke-width:1.5;" x1="2428" x2="2584" y1="367" y2="367"/><ellipse cx="2438" cy="378" fill="#84BE84" rx="3" ry="3" style="stroke:#038048;stroke-width:1.0;"/><text fill="#000000" font-family="sans-serif" font-size="11" lengthAdjust="spacing" textLength="132" x="2447" y="382.4189">«Create» Beedrill(String,int)</text><!--MD5=[a80b0d4787d15a82a551aea18ef3a3f1]
class com.company.Swagger--><rect codeLine="51" fill="#FEFECE" filter="url(#f14re3jtbkn07r)" height="89.5078" id="com.company.Swagger" style="stroke:#A80036;stroke-width:1.5;" width="181" x="4968.5" y="170.5"/><ellipse cx="5030.25" cy="186.5" fill="#ADD1B2" rx="11" ry="11" style="stroke:#A80036;stroke-width:1.0;"/><path d="M5032.25,183 Q5032.4531,182.5 5032.6875,182.25 Q5032.9219,182 5033.1875,182 Q5033.6563,182 5033.9531,182.2813 Q5034.25,182.5625 5034.25,183.2188 L5034.25,184.7813 Q5034.25,185.4375 5033.9688,185.7188 Q5033.6875,186 5033.25,186 Q5032.8594,186 5032.6094,185.8281 Q5032.3594,185.6563 5032.25,185.2031 Q5032.2031,184.8906 5032.0313,184.7188 Q5031.7188,184.3906 5031.1563,184.2031 Q5030.5938,184 5030.0313,184 Q5029.3281,184 5028.7344,184.2813 Q5028.1563,184.5625 5027.7031,185.1875 Q5027.25,185.8125 5027.25,186.6719 L5027.25,187.5938 Q5027.25,188.625 5028.0938,189.3125 Q5028.9375,190 5030.4375,190 Q5031.3281,190 5031.9531,189.7969 Q5032.3125,189.6875 5032.7188,189.3281 Q5032.9844,189.125 5033.125,189.0625 Q5033.2656,189 5033.4375,189 Q5033.7656,189 5034,189.2656 Q5034.25,189.5156 5034.25,189.875 Q5034.25,190.2188 5033.9063,190.625 Q5033.4063,191.2188 5032.6094,191.5469 Q5031.5625,192 5030.2813,192 Q5028.7813,192 5027.5781,191.4063 Q5026.6094,190.9375 5025.9219,189.9219 Q5025.25,188.9063 5025.25,187.7031 L5025.25,186.6094 Q5025.25,185.3594 5025.8438,184.2656 Q5026.4531,183.1719 5027.5,182.5938 Q5028.5625,182 5029.75,182 Q5030.4688,182 5031.0938,182.25 Q5031.7188,182.5 5032.25,183 Z " fill="#000000"/><text fill="#000000" font-family="sans-serif" font-size="12" lengthAdjust="spacing" textLength="49" x="5050.75" y="191.4102">Swagger</text><line style="stroke:#A80036;stroke-width:1.5;" x1="4969.5" x2="5148.5" y1="202.5" y2="202.5"/><line style="stroke:#A80036;stroke-width:1.5;" x1="4969.5" x2="5148.5" y1="210.5" y2="210.5"/><ellipse cx="4979.5" cy="221.5" fill="#84BE84" rx="3" ry="3" style="stroke:#038048;stroke-width:1.0;"/><text fill="#000000" font-family="sans-serif" font-size="11" lengthAdjust="spacing" textLength="100" x="4988.5" y="225.9189">«Create» Swagger()</text><polygon fill="#FFFF44" points="4979.5,230.3359,4983.5,234.3359,4979.5,238.3359,4975.5,234.3359" style="stroke:#B38D22;stroke-width:1.0;"/><text fill="#000000" font-family="sans-serif" font-size="11" lengthAdjust="spacing" textLength="155" x="4988.5" y="239.7549">void applyOppEffects(Pokemon)</text><polygon fill="#FFFF44" points="4979.5,244.1719,4983.5,248.1719,4979.5,252.1719,4975.5,248.1719" style="stroke:#B38D22;stroke-width:1.0;"/><text fill="#000000" font-family="sans-serif" font-size="11" lengthAdjust="spacing" textLength="81" x="4988.5" y="253.5908">String describe()</text><!--MD5=[e3e668d6d7ac35af7a488c35535a79ba]
class com.company.Focus_Blast--><rect codeLine="56" fill="#FEFECE" filter="url(#f14re3jtbkn07r)" height="89.5078" id="com.company.Focus_Blast" style="stroke:#A80036;stroke-width:1.5;" width="181" x="32.5" y="170.5"/><ellipse cx="84.25" cy="186.5" fill="#ADD1B2" rx="11" ry="11" style="stroke:#A80036;stroke-width:1.0;"/><path d="M86.25,183 Q86.4531,182.5 86.6875,182.25 Q86.9219,182 87.1875,182 Q87.6563,182 87.9531,182.2813 Q88.25,182.5625 88.25,183.2188 L88.25,184.7813 Q88.25,185.4375 87.9688,185.7188 Q87.6875,186 87.25,186 Q86.8594,186 86.6094,185.8281 Q86.3594,185.6563 86.25,185.2031 Q86.2031,184.8906 86.0313,184.7188 Q85.7188,184.3906 85.1563,184.2031 Q84.5938,184 84.0313,184 Q83.3281,184 82.7344,184.2813 Q82.1563,184.5625 81.7031,185.1875 Q81.25,185.8125 81.25,186.6719 L81.25,187.5938 Q81.25,188.625 82.0938,189.3125 Q82.9375,190 84.4375,190 Q85.3281,190 85.9531,189.7969 Q86.3125,189.6875 86.7188,189.3281 Q86.9844,189.125 87.125,189.0625 Q87.2656,189 87.4375,189 Q87.7656,189 88,189.2656 Q88.25,189.5156 88.25,189.875 Q88.25,190.2188 87.9063,190.625 Q87.4063,191.2188 86.6094,191.5469 Q85.5625,192 84.2813,192 Q82.7813,192 81.5781,191.4063 Q80.6094,190.9375 79.9219,189.9219 Q79.25,188.9063 79.25,187.7031 L79.25,186.6094 Q79.25,185.3594 79.8438,184.2656 Q80.4531,183.1719 81.5,182.5938 Q82.5625,182 83.75,182 Q84.4688,182 85.0938,182.25 Q85.7188,182.5 86.25,183 Z " fill="#000000"/><text fill="#000000" font-family="sans-serif" font-size="12" lengthAdjust="spacing" textLength="69" x="104.75" y="191.4102">Focus_Blast</text><line style="stroke:#A80036;stroke-width:1.5;" x1="33.5" x2="212.5" y1="202.5" y2="202.5"/><line style="stroke:#A80036;stroke-width:1.5;" x1="33.5" x2="212.5" y1="210.5" y2="210.5"/><ellipse cx="43.5" cy="221.5" fill="#84BE84" rx="3" ry="3" style="stroke:#038048;stroke-width:1.0;"/><text fill="#000000" font-family="sans-serif" font-size="11" lengthAdjust="spacing" textLength="115" x="52.5" y="225.9189">«Create» Focus_Blast()</text><polygon fill="#FFFF44" points="43.5,230.3359,47.5,234.3359,43.5,238.3359,39.5,234.3359" style="stroke:#B38D22;stroke-width:1.0;"/><text fill="#000000" font-family="sans-serif" font-size="11" lengthAdjust="spacing" textLength="155" x="52.5" y="239.7549">void applyOppEffects(Pokemon)</text><polygon fill="#FFFF44" points="43.5,244.1719,47.5,248.1719,43.5,252.1719,39.5,248.1719" style="stroke:#B38D22;stroke-width:1.0;"/><text fill="#000000" font-family="sans-serif" font-size="11" lengthAdjust="spacing" textLength="81" x="52.5" y="253.5908">String describe()</text><!--MD5=[a60aec0bbabdb62e457eb03460faf899]
class com.company.Tail_Whip--><rect codeLine="61" fill="#FEFECE" filter="url(#f14re3jtbkn07r)" height="89.5078" id="com.company.Tail_Whip" style="stroke:#A80036;stroke-width:1.5;" width="181" x="5184.5" y="170.5"/><ellipse cx="5243.25" cy="186.5" fill="#ADD1B2" rx="11" ry="11" style="stroke:#A80036;stroke-width:1.0;"/><path d="M5245.25,183 Q5245.4531,182.5 5245.6875,182.25 Q5245.9219,182 5246.1875,182 Q5246.6563,182 5246.9531,182.2813 Q5247.25,182.5625 5247.25,183.2188 L5247.25,184.7813 Q5247.25,185.4375 5246.9688,185.7188 Q5246.6875,186 5246.25,186 Q5245.8594,186 5245.6094,185.8281 Q5245.3594,185.6563 5245.25,185.2031 Q5245.2031,184.8906 5245.0313,184.7188 Q5244.7188,184.3906 5244.1563,184.2031 Q5243.5938,184 5243.0313,184 Q5242.3281,184 5241.7344,184.2813 Q5241.1563,184.5625 5240.7031,185.1875 Q5240.25,185.8125 5240.25,186.6719 L5240.25,187.5938 Q5240.25,188.625 5241.0938,189.3125 Q5241.9375,190 5243.4375,190 Q5244.3281,190 5244.9531,189.7969 Q5245.3125,189.6875 5245.7188,189.3281 Q5245.9844,189.125 5246.125,189.0625 Q5246.2656,189 5246.4375,189 Q5246.7656,189 5247,189.2656 Q5247.25,189.5156 5247.25,189.875 Q5247.25,190.2188 5246.9063,190.625 Q5246.4063,191.2188 5245.6094,191.5469 Q5244.5625,192 5243.2813,192 Q5241.7813,192 5240.5781,191.4063 Q5239.6094,190.9375 5238.9219,189.9219 Q5238.25,188.9063 5238.25,187.7031 L5238.25,186.6094 Q5238.25,185.3594 5238.8438,184.2656 Q5239.4531,183.1719 5240.5,182.5938 Q5241.5625,182 5242.75,182 Q5243.4688,182 5244.0938,182.25 Q5244.7188,182.5 5245.25,183 Z " fill="#000000"/><text fill="#000000" font-family="sans-serif" font-size="12" lengthAdjust="spacing" textLength="55" x="5263.75" y="191.4102">Tail_Whip</text><line style="stroke:#A80036;stroke-width:1.5;" x1="5185.5" x2="5364.5" y1="202.5" y2="202.5"/><line style="stroke:#A80036;stroke-width:1.5;" x1="5185.5" x2="5364.5" y1="210.5" y2="210.5"/><ellipse cx="5195.5" cy="221.5" fill="#84BE84" rx="3" ry="3" style="stroke:#038048;stroke-width:1.0;"/><text fill="#000000" font-family="sans-serif" font-size="11" lengthAdjust="spacing" textLength="101" x="5204.5" y="225.9189">«Create» Tail_Whip()</text><polygon fill="#FFFF44" points="5195.5,230.3359,5199.5,234.3359,5195.5,238.3359,5191.5,234.3359" style="stroke:#B38D22;stroke-width:1.0;"/><text fill="#000000" font-family="sans-serif" font-size="11" lengthAdjust="spacing" textLength="155" x="5204.5" y="239.7549">void applyOppEffects(Pokemon)</text><polygon fill="#FFFF44" points="5195.5,244.1719,5199.5,248.1719,5195.5,252.1719,5191.5,248.1719" style="stroke:#B38D22;stroke-width:1.0;"/><text fill="#000000" font-family="sans-serif" font-size="11" lengthAdjust="spacing" textLength="81" x="5204.5" y="253.5908">String describe()</text><!--MD5=[9969e8a55ba4444eb72876eace1878a0]
class com.company.Silvally--><rect codeLine="66" fill="#FEFECE" filter="url(#f14re3jtbkn07r)" height="61.8359" id="com.company.Silvally" style="stroke:#A80036;stroke-width:1.5;" width="156" x="3000" y="184.5"/><ellipse cx="3055.25" cy="200.5" fill="#ADD1B2" rx="11" ry="11" style="stroke:#A80036;stroke-width:1.0;"/><path d="M3057.25,197 Q3057.4531,196.5 3057.6875,196.25 Q3057.9219,196 3058.1875,196 Q3058.6563,196 3058.9531,196.2813 Q3059.25,196.5625 3059.25,197.2188 L3059.25,198.7813 Q3059.25,199.4375 3058.9688,199.7188 Q3058.6875,200 3058.25,200 Q3057.8594,200 3057.6094,199.8281 Q3057.3594,199.6563 3057.25,199.2031 Q3057.2031,198.8906 3057.0313,198.7188 Q3056.7188,198.3906 3056.1563,198.2031 Q3055.5938,198 3055.0313,198 Q3054.3281,198 3053.7344,198.2813 Q3053.1563,198.5625 3052.7031,199.1875 Q3052.25,199.8125 3052.25,200.6719 L3052.25,201.5938 Q3052.25,202.625 3053.0938,203.3125 Q3053.9375,204 3055.4375,204 Q3056.3281,204 3056.9531,203.7969 Q3057.3125,203.6875 3057.7188,203.3281 Q3057.9844,203.125 3058.125,203.0625 Q3058.2656,203 3058.4375,203 Q3058.7656,203 3059,203.2656 Q3059.25,203.5156 3059.25,203.875 Q3059.25,204.2188 3058.9063,204.625 Q3058.4063,205.2188 3057.6094,205.5469 Q3056.5625,206 3055.2813,206 Q3053.7813,206 3052.5781,205.4063 Q3051.6094,204.9375 3050.9219,203.9219 Q3050.25,202.9063 3050.25,201.7031 L3050.25,200.6094 Q3050.25,199.3594 3050.8438,198.2656 Q3051.4531,197.1719 3052.5,196.5938 Q3053.5625,196 3054.75,196 Q3055.4688,196 3056.0938,196.25 Q3056.7188,196.5 3057.25,197 Z " fill="#000000"/><text fill="#000000" font-family="sans-serif" font-size="12" lengthAdjust="spacing" textLength="37" x="3075.75" y="205.4102">Silvally</text><line style="stroke:#A80036;stroke-width:1.5;" x1="3001" x2="3155" y1="216.5" y2="216.5"/><line style="stroke:#A80036;stroke-width:1.5;" x1="3001" x2="3155" y1="224.5" y2="224.5"/><ellipse cx="3011" cy="235.5" fill="#84BE84" rx="3" ry="3" style="stroke:#038048;stroke-width:1.0;"/><text fill="#000000" font-family="sans-serif" font-size="11" lengthAdjust="spacing" textLength="130" x="3020" y="239.9189">«Create» Silvally(String,int)</text><!--MD5=[a86fcffe36e7b3c49a8d696cb5a7e658]
class com.company.Klefki--><rect codeLine="69" fill="#FEFECE" filter="url(#f14re3jtbkn07r)" height="61.8359" id="com.company.Klefki" style="stroke:#A80036;stroke-width:1.5;" width="149" x="3191.5" y="184.5"/><ellipse cx="3246.75" cy="200.5" fill="#ADD1B2" rx="11" ry="11" style="stroke:#A80036;stroke-width:1.0;"/><path d="M3248.75,197 Q3248.9531,196.5 3249.1875,196.25 Q3249.4219,196 3249.6875,196 Q3250.1563,196 3250.4531,196.2813 Q3250.75,196.5625 3250.75,197.2188 L3250.75,198.7813 Q3250.75,199.4375 3250.4688,199.7188 Q3250.1875,200 3249.75,200 Q3249.3594,200 3249.1094,199.8281 Q3248.8594,199.6563 3248.75,199.2031 Q3248.7031,198.8906 3248.5313,198.7188 Q3248.2188,198.3906 3247.6563,198.2031 Q3247.0938,198 3246.5313,198 Q3245.8281,198 3245.2344,198.2813 Q3244.6563,198.5625 3244.2031,199.1875 Q3243.75,199.8125 3243.75,200.6719 L3243.75,201.5938 Q3243.75,202.625 3244.5938,203.3125 Q3245.4375,204 3246.9375,204 Q3247.8281,204 3248.4531,203.7969 Q3248.8125,203.6875 3249.2188,203.3281 Q3249.4844,203.125 3249.625,203.0625 Q3249.7656,203 3249.9375,203 Q3250.2656,203 3250.5,203.2656 Q3250.75,203.5156 3250.75,203.875 Q3250.75,204.2188 3250.4063,204.625 Q3249.9063,205.2188 3249.1094,205.5469 Q3248.0625,206 3246.7813,206 Q3245.2813,206 3244.0781,205.4063 Q3243.1094,204.9375 3242.4219,203.9219 Q3241.75,202.9063 3241.75,201.7031 L3241.75,200.6094 Q3241.75,199.3594 3242.3438,198.2656 Q3242.9531,197.1719 3244,196.5938 Q3245.0625,196 3246.25,196 Q3246.9688,196 3247.5938,196.25 Q3248.2188,196.5 3248.75,197 Z " fill="#000000"/><text fill="#000000" font-family="sans-serif" font-size="12" lengthAdjust="spacing" textLength="30" x="3267.25" y="205.4102">Klefki</text><line style="stroke:#A80036;stroke-width:1.5;" x1="3192.5" x2="3339.5" y1="216.5" y2="216.5"/><line style="stroke:#A80036;stroke-width:1.5;" x1="3192.5" x2="3339.5" y1="224.5" y2="224.5"/><ellipse cx="3202.5" cy="235.5" fill="#84BE84" rx="3" ry="3" style="stroke:#038048;stroke-width:1.0;"/><text fill="#000000" font-family="sans-serif" font-size="11" lengthAdjust="spacing" textLength="123" x="3211.5" y="239.9189">«Create» Klefki(String,int)</text><!--MD5=[041de36761d6d04535a51fb268ff977b]
class com.company.Ekans--><rect codeLine="72" fill="#FEFECE" filter="url(#f14re3jtbkn07r)" height="61.8359" id="com.company.Ekans" style="stroke:#A80036;stroke-width:1.5;" width="152" x="3376" y="184.5"/><ellipse cx="3430.25" cy="200.5" fill="#ADD1B2" rx="11" ry="11" style="stroke:#A80036;stroke-width:1.0;"/><path d="M3432.25,197 Q3432.4531,196.5 3432.6875,196.25 Q3432.9219,196 3433.1875,196 Q3433.6563,196 3433.9531,196.2813 Q3434.25,196.5625 3434.25,197.2188 L3434.25,198.7813 Q3434.25,199.4375 3433.9688,199.7188 Q3433.6875,200 3433.25,200 Q3432.8594,200 3432.6094,199.8281 Q3432.3594,199.6563 3432.25,199.2031 Q3432.2031,198.8906 3432.0313,198.7188 Q3431.7188,198.3906 3431.1563,198.2031 Q3430.5938,198 3430.0313,198 Q3429.3281,198 3428.7344,198.2813 Q3428.1563,198.5625 3427.7031,199.1875 Q3427.25,199.8125 3427.25,200.6719 L3427.25,201.5938 Q3427.25,202.625 3428.0938,203.3125 Q3428.9375,204 3430.4375,204 Q3431.3281,204 3431.9531,203.7969 Q3432.3125,203.6875 3432.7188,203.3281 Q3432.9844,203.125 3433.125,203.0625 Q3433.2656,203 3433.4375,203 Q3433.7656,203 3434,203.2656 Q3434.25,203.5156 3434.25,203.875 Q3434.25,204.2188 3433.9063,204.625 Q3433.4063,205.2188 3432.6094,205.5469 Q3431.5625,206 3430.2813,206 Q3428.7813,206 3427.5781,205.4063 Q3426.6094,204.9375 3425.9219,203.9219 Q3425.25,202.9063 3425.25,201.7031 L3425.25,200.6094 Q3425.25,199.3594 3425.8438,198.2656 Q3426.4531,197.1719 3427.5,196.5938 Q3428.5625,196 3429.75,196 Q3430.4688,196 3431.0938,196.25 Q3431.7188,196.5 3432.25,197 Z " fill="#000000"/><text fill="#000000" font-family="sans-serif" font-size="12" lengthAdjust="spacing" textLength="35" x="3450.75" y="205.4102">Ekans</text><line style="stroke:#A80036;stroke-width:1.5;" x1="3377" x2="3527" y1="216.5" y2="216.5"/><line style="stroke:#A80036;stroke-width:1.5;" x1="3377" x2="3527" y1="224.5" y2="224.5"/><ellipse cx="3387" cy="235.5" fill="#84BE84" rx="3" ry="3" style="stroke:#038048;stroke-width:1.0;"/><text fill="#000000" font-family="sans-serif" font-size="11" lengthAdjust="spacing" textLength="126" x="3396" y="239.9189">«Create» Ekans(String,int)</text><!--MD5=[860b0627f4e41a838b422fd844ced6ba]
class com.company.Main--><rect codeLine="75" fill="#FEFECE" filter="url(#f14re3jtbkn07r)" height="61.8359" id="com.company.Main" style="stroke:#A80036;stroke-width:1.5;" width="113" x="5073.5" y="42"/><ellipse cx="5113.25" cy="58" fill="#ADD1B2" rx="11" ry="11" style="stroke:#A80036;stroke-width:1.0;"/><path d="M5115.25,54.5 Q5115.4531,54 5115.6875,53.75 Q5115.9219,53.5 5116.1875,53.5 Q5116.6563,53.5 5116.9531,53.7813 Q5117.25,54.0625 5117.25,54.7188 L5117.25,56.2813 Q5117.25,56.9375 5116.9688,57.2188 Q5116.6875,57.5 5116.25,57.5 Q5115.8594,57.5 5115.6094,57.3281 Q5115.3594,57.1563 5115.25,56.7031 Q5115.2031,56.3906 5115.0313,56.2188 Q5114.7188,55.8906 5114.1563,55.7031 Q5113.5938,55.5 5113.0313,55.5 Q5112.3281,55.5 5111.7344,55.7813 Q5111.1563,56.0625 5110.7031,56.6875 Q5110.25,57.3125 5110.25,58.1719 L5110.25,59.0938 Q5110.25,60.125 5111.0938,60.8125 Q5111.9375,61.5 5113.4375,61.5 Q5114.3281,61.5 5114.9531,61.2969 Q5115.3125,61.1875 5115.7188,60.8281 Q5115.9844,60.625 5116.125,60.5625 Q5116.2656,60.5 5116.4375,60.5 Q5116.7656,60.5 5117,60.7656 Q5117.25,61.0156 5117.25,61.375 Q5117.25,61.7188 5116.9063,62.125 Q5116.4063,62.7188 5115.6094,63.0469 Q5114.5625,63.5 5113.2813,63.5 Q5111.7813,63.5 5110.5781,62.9063 Q5109.6094,62.4375 5108.9219,61.4219 Q5108.25,60.4063 5108.25,59.2031 L5108.25,58.1094 Q5108.25,56.8594 5108.8438,55.7656 Q5109.4531,54.6719 5110.5,54.0938 Q5111.5625,53.5 5112.75,53.5 Q5113.4688,53.5 5114.0938,53.75 Q5114.7188,54 5115.25,54.5 Z " fill="#000000"/><text fill="#000000" font-family="sans-serif" font-size="12" lengthAdjust="spacing" textLength="26" x="5132.75" y="62.9102">Main</text><line style="stroke:#A80036;stroke-width:1.5;" x1="5074.5" x2="5185.5" y1="74" y2="74"/><line style="stroke:#A80036;stroke-width:1.5;" x1="5074.5" x2="5185.5" y1="82" y2="82"/><ellipse cx="5084.5" cy="93" fill="#84BE84" rx="3" ry="3" style="stroke:#038048;stroke-width:1.0;"/><text fill="#000000" font-family="sans-serif" font-size="11" lengthAdjust="spacing" text-decoration="underline" textLength="87" x="5093.5" y="97.4189">void main(String[])</text><!--MD5=[9fd6e9acda9f80c08fd434d394aff7bb]
class com.company.Snorlax--><rect codeLine="78" fill="#FEFECE" filter="url(#f14re3jtbkn07r)" height="61.8359" id="com.company.Snorlax" style="stroke:#A80036;stroke-width:1.5;" width="160" x="3563" y="184.5"/><ellipse cx="3618.25" cy="200.5" fill="#ADD1B2" rx="11" ry="11" style="stroke:#A80036;stroke-width:1.0;"/><path d="M3620.25,197 Q3620.4531,196.5 3620.6875,196.25 Q3620.9219,196 3621.1875,196 Q3621.6563,196 3621.9531,196.2813 Q3622.25,196.5625 3622.25,197.2188 L3622.25,198.7813 Q3622.25,199.4375 3621.9688,199.7188 Q3621.6875,200 3621.25,200 Q3620.8594,200 3620.6094,199.8281 Q3620.3594,199.6563 3620.25,199.2031 Q3620.2031,198.8906 3620.0313,198.7188 Q3619.7188,198.3906 3619.1563,198.2031 Q3618.5938,198 3618.0313,198 Q3617.3281,198 3616.7344,198.2813 Q3616.1563,198.5625 3615.7031,199.1875 Q3615.25,199.8125 3615.25,200.6719 L3615.25,201.5938 Q3615.25,202.625 3616.0938,203.3125 Q3616.9375,204 3618.4375,204 Q3619.3281,204 3619.9531,203.7969 Q3620.3125,203.6875 3620.7188,203.3281 Q3620.9844,203.125 3621.125,203.0625 Q3621.2656,203 3621.4375,203 Q3621.7656,203 3622,203.2656 Q3622.25,203.5156 3622.25,203.875 Q3622.25,204.2188 3621.9063,204.625 Q3621.4063,205.2188 3620.6094,205.5469 Q3619.5625,206 3618.2813,206 Q3616.7813,206 3615.5781,205.4063 Q3614.6094,204.9375 3613.9219,203.9219 Q3613.25,202.9063 3613.25,201.7031 L3613.25,200.6094 Q3613.25,199.3594 3613.8438,198.2656 Q3614.4531,197.1719 3615.5,196.5938 Q3616.5625,196 3617.75,196 Q3618.4688,196 3619.0938,196.25 Q3619.7188,196.5 3620.25,197 Z " fill="#000000"/><text fill="#000000" font-family="sans-serif" font-size="12" lengthAdjust="spacing" textLength="41" x="3638.75" y="205.4102">Snorlax</text><line style="stroke:#A80036;stroke-width:1.5;" x1="3564" x2="3722" y1="216.5" y2="216.5"/><line style="stroke:#A80036;stroke-width:1.5;" x1="3564" x2="3722" y1="224.5" y2="224.5"/><ellipse cx="3574" cy="235.5" fill="#84BE84" rx="3" ry="3" style="stroke:#038048;stroke-width:1.0;"/><text fill="#000000" font-family="sans-serif" font-size="11" lengthAdjust="spacing" textLength="134" x="3583" y="239.9189">«Create» Snorlax(String,int)</text><!--MD5=[a1dcca8590872ec4b3baac3cc902ed1f]
class com.company.Ice_Beam--><rect codeLine="81" fill="#FEFECE" filter="url(#f14re3jtbkn07r)" height="89.5078" id="com.company.Ice_Beam" style="stroke:#A80036;stroke-width:1.5;" width="181" x="248.5" y="170.5"/><ellipse cx="306.75" cy="186.5" fill="#ADD1B2" rx="11" ry="11" style="stroke:#A80036;stroke-width:1.0;"/><path d="M308.75,183 Q308.9531,182.5 309.1875,182.25 Q309.4219,182 309.6875,182 Q310.1563,182 310.4531,182.2813 Q310.75,182.5625 310.75,183.2188 L310.75,184.7813 Q310.75,185.4375 310.4688,185.7188 Q310.1875,186 309.75,186 Q309.3594,186 309.1094,185.8281 Q308.8594,185.6563 308.75,185.2031 Q308.7031,184.8906 308.5313,184.7188 Q308.2188,184.3906 307.6563,184.2031 Q307.0938,184 306.5313,184 Q305.8281,184 305.2344,184.2813 Q304.6563,184.5625 304.2031,185.1875 Q303.75,185.8125 303.75,186.6719 L303.75,187.5938 Q303.75,188.625 304.5938,189.3125 Q305.4375,190 306.9375,190 Q307.8281,190 308.4531,189.7969 Q308.8125,189.6875 309.2188,189.3281 Q309.4844,189.125 309.625,189.0625 Q309.7656,189 309.9375,189 Q310.2656,189 310.5,189.2656 Q310.75,189.5156 310.75,189.875 Q310.75,190.2188 310.4063,190.625 Q309.9063,191.2188 309.1094,191.5469 Q308.0625,192 306.7813,192 Q305.2813,192 304.0781,191.4063 Q303.1094,190.9375 302.4219,189.9219 Q301.75,188.9063 301.75,187.7031 L301.75,186.6094 Q301.75,185.3594 302.3438,184.2656 Q302.9531,183.1719 304,182.5938 Q305.0625,182 306.25,182 Q306.9688,182 307.5938,182.25 Q308.2188,182.5 308.75,183 Z " fill="#000000"/><text fill="#000000" font-family="sans-serif" font-size="12" lengthAdjust="spacing" textLength="56" x="327.25" y="191.4102">Ice_Beam</text><line style="stroke:#A80036;stroke-width:1.5;" x1="249.5" x2="428.5" y1="202.5" y2="202.5"/><line style="stroke:#A80036;stroke-width:1.5;" x1="249.5" x2="428.5" y1="210.5" y2="210.5"/><ellipse cx="259.5" cy="221.5" fill="#84BE84" rx="3" ry="3" style="stroke:#038048;stroke-width:1.0;"/><text fill="#000000" font-family="sans-serif" font-size="11" lengthAdjust="spacing" textLength="102" x="268.5" y="225.9189">«Create» Ice_Beam()</text><polygon fill="#FFFF44" points="259.5,230.3359,263.5,234.3359,259.5,238.3359,255.5,234.3359" style="stroke:#B38D22;stroke-width:1.0;"/><text fill="#000000" font-family="sans-serif" font-size="11" lengthAdjust="spacing" textLength="155" x="268.5" y="239.7549">void applyOppEffects(Pokemon)</text><polygon fill="#FFFF44" points="259.5,244.1719,263.5,248.1719,259.5,252.1719,255.5,248.1719" style="stroke:#B38D22;stroke-width:1.0;"/><text fill="#000000" font-family="sans-serif" font-size="11" lengthAdjust="spacing" textLength="81" x="268.5" y="253.5908">String describe()</text><!--MD5=[45e86ec3f4df405ecfce9d7a4cd05334]
class com.company.Blizzard--><rect codeLine="86" fill="#FEFECE" filter="url(#f14re3jtbkn07r)" height="89.5078" id="com.company.Blizzard" style="stroke:#A80036;stroke-width:1.5;" width="181" x="464.5" y="170.5"/><ellipse cx="529.75" cy="186.5" fill="#ADD1B2" rx="11" ry="11" style="stroke:#A80036;stroke-width:1.0;"/><path d="M531.75,183 Q531.9531,182.5 532.1875,182.25 Q532.4219,182 532.6875,182 Q533.1563,182 533.4531,182.2813 Q533.75,182.5625 533.75,183.2188 L533.75,184.7813 Q533.75,185.4375 533.4688,185.7188 Q533.1875,186 532.75,186 Q532.3594,186 532.1094,185.8281 Q531.8594,185.6563 531.75,185.2031 Q531.7031,184.8906 531.5313,184.7188 Q531.2188,184.3906 530.6563,184.2031 Q530.0938,184 529.5313,184 Q528.8281,184 528.2344,184.2813 Q527.6563,184.5625 527.2031,185.1875 Q526.75,185.8125 526.75,186.6719 L526.75,187.5938 Q526.75,188.625 527.5938,189.3125 Q528.4375,190 529.9375,190 Q530.8281,190 531.4531,189.7969 Q531.8125,189.6875 532.2188,189.3281 Q532.4844,189.125 532.625,189.0625 Q532.7656,189 532.9375,189 Q533.2656,189 533.5,189.2656 Q533.75,189.5156 533.75,189.875 Q533.75,190.2188 533.4063,190.625 Q532.9063,191.2188 532.1094,191.5469 Q531.0625,192 529.7813,192 Q528.2813,192 527.0781,191.4063 Q526.1094,190.9375 525.4219,189.9219 Q524.75,188.9063 524.75,187.7031 L524.75,186.6094 Q524.75,185.3594 525.3438,184.2656 Q525.9531,183.1719 527,182.5938 Q528.0625,182 529.25,182 Q529.9688,182 530.5938,182.25 Q531.2188,182.5 531.75,183 Z " fill="#000000"/><text fill="#000000" font-family="sans-serif" font-size="12" lengthAdjust="spacing" textLength="42" x="550.25" y="191.4102">Blizzard</text><line style="stroke:#A80036;stroke-width:1.5;" x1="465.5" x2="644.5" y1="202.5" y2="202.5"/><line style="stroke:#A80036;stroke-width:1.5;" x1="465.5" x2="644.5" y1="210.5" y2="210.5"/><ellipse cx="475.5" cy="221.5" fill="#84BE84" rx="3" ry="3" style="stroke:#038048;stroke-width:1.0;"/><text fill="#000000" font-family="sans-serif" font-size="11" lengthAdjust="spacing" textLength="94" x="484.5" y="225.9189">«Create» Blizzard()</text><polygon fill="#FFFF44" points="475.5,230.3359,479.5,234.3359,475.5,238.3359,471.5,234.3359" style="stroke:#B38D22;stroke-width:1.0;"/><text fill="#000000" font-family="sans-serif" font-size="11" lengthAdjust="spacing" textLength="155" x="484.5" y="239.7549">void applyOppEffects(Pokemon)</text><polygon fill="#FFFF44" points="475.5,244.1719,479.5,248.1719,475.5,252.1719,471.5,248.1719" style="stroke:#B38D22;stroke-width:1.0;"/><text fill="#000000" font-family="sans-serif" font-size="11" lengthAdjust="spacing" textLength="81" x="484.5" y="253.5908">String describe()</text><!--MD5=[8e0526f56dd4d9e62f55b48236431b0a]
class com.company.Luvdisc--><rect codeLine="91" fill="#FEFECE" filter="url(#f14re3jtbkn07r)" height="61.8359" id="com.company.Luvdisc" style="stroke:#A80036;stroke-width:1.5;" width="161" x="3758.5" y="184.5"/><ellipse cx="3813.75" cy="200.5" fill="#ADD1B2" rx="11" ry="11" style="stroke:#A80036;stroke-width:1.0;"/><path d="M3815.75,197 Q3815.9531,196.5 3816.1875,196.25 Q3816.4219,196 3816.6875,196 Q3817.1563,196 3817.4531,196.2813 Q3817.75,196.5625 3817.75,197.2188 L3817.75,198.7813 Q3817.75,199.4375 3817.4688,199.7188 Q3817.1875,200 3816.75,200 Q3816.3594,200 3816.1094,199.8281 Q3815.8594,199.6563 3815.75,199.2031 Q3815.7031,198.8906 3815.5313,198.7188 Q3815.2188,198.3906 3814.6563,198.2031 Q3814.0938,198 3813.5313,198 Q3812.8281,198 3812.2344,198.2813 Q3811.6563,198.5625 3811.2031,199.1875 Q3810.75,199.8125 3810.75,200.6719 L3810.75,201.5938 Q3810.75,202.625 3811.5938,203.3125 Q3812.4375,204 3813.9375,204 Q3814.8281,204 3815.4531,203.7969 Q3815.8125,203.6875 3816.2188,203.3281 Q3816.4844,203.125 3816.625,203.0625 Q3816.7656,203 3816.9375,203 Q3817.2656,203 3817.5,203.2656 Q3817.75,203.5156 3817.75,203.875 Q3817.75,204.2188 3817.4063,204.625 Q3816.9063,205.2188 3816.1094,205.5469 Q3815.0625,206 3813.7813,206 Q3812.2813,206 3811.0781,205.4063 Q3810.1094,204.9375 3809.4219,203.9219 Q3808.75,202.9063 3808.75,201.7031 L3808.75,200.6094 Q3808.75,199.3594 3809.3438,198.2656 Q3809.9531,197.1719 3811,196.5938 Q3812.0625,196 3813.25,196 Q3813.9688,196 3814.5938,196.25 Q3815.2188,196.5 3815.75,197 Z " fill="#000000"/><text fill="#000000" font-family="sans-serif" font-size="12" lengthAdjust="spacing" textLength="42" x="3834.25" y="205.4102">Luvdisc</text><line style="stroke:#A80036;stroke-width:1.5;" x1="3759.5" x2="3918.5" y1="216.5" y2="216.5"/><line style="stroke:#A80036;stroke-width:1.5;" x1="3759.5" x2="3918.5" y1="224.5" y2="224.5"/><ellipse cx="3769.5" cy="235.5" fill="#84BE84" rx="3" ry="3" style="stroke:#038048;stroke-width:1.0;"/><text fill="#000000" font-family="sans-serif" font-size="11" lengthAdjust="spacing" textLength="135" x="3778.5" y="239.9189">«Create» Luvdisc(String,int)</text><!--MD5=[4605b2504b59b64bac61ee732251b62f]
class com.company.Crunch--><rect codeLine="94" fill="#FEFECE" filter="url(#f14re3jtbkn07r)" height="89.5078" id="com.company.Crunch" style="stroke:#A80036;stroke-width:1.5;" width="181" x="1542.5" y="170.5"/><ellipse cx="1608.75" cy="186.5" fill="#ADD1B2" rx="11" ry="11" style="stroke:#A80036;stroke-width:1.0;"/><path d="M1610.75,183 Q1610.9531,182.5 1611.1875,182.25 Q1611.4219,182 1611.6875,182 Q1612.1563,182 1612.4531,182.2813 Q1612.75,182.5625 1612.75,183.2188 L1612.75,184.7813 Q1612.75,185.4375 1612.4688,185.7188 Q1612.1875,186 1611.75,186 Q1611.3594,186 1611.1094,185.8281 Q1610.8594,185.6563 1610.75,185.2031 Q1610.7031,184.8906 1610.5313,184.7188 Q1610.2188,184.3906 1609.6563,184.2031 Q1609.0938,184 1608.5313,184 Q1607.8281,184 1607.2344,184.2813 Q1606.6563,184.5625 1606.2031,185.1875 Q1605.75,185.8125 1605.75,186.6719 L1605.75,187.5938 Q1605.75,188.625 1606.5938,189.3125 Q1607.4375,190 1608.9375,190 Q1609.8281,190 1610.4531,189.7969 Q1610.8125,189.6875 1611.2188,189.3281 Q1611.4844,189.125 1611.625,189.0625 Q1611.7656,189 1611.9375,189 Q1612.2656,189 1612.5,189.2656 Q1612.75,189.5156 1612.75,189.875 Q1612.75,190.2188 1612.4063,190.625 Q1611.9063,191.2188 1611.1094,191.5469 Q1610.0625,192 1608.7813,192 Q1607.2813,192 1606.0781,191.4063 Q1605.1094,190.9375 1604.4219,189.9219 Q1603.75,188.9063 1603.75,187.7031 L1603.75,186.6094 Q1603.75,185.3594 1604.3438,184.2656 Q1604.9531,183.1719 1606,182.5938 Q1607.0625,182 1608.25,182 Q1608.9688,182 1609.5938,182.25 Q1610.2188,182.5 1610.75,183 Z " fill="#000000"/><text fill="#000000" font-family="sans-serif" font-size="12" lengthAdjust="spacing" textLength="40" x="1629.25" y="191.4102">Crunch</text><line style="stroke:#A80036;stroke-width:1.5;" x1="1543.5" x2="1722.5" y1="202.5" y2="202.5"/><line style="stroke:#A80036;stroke-width:1.5;" x1="1543.5" x2="1722.5" y1="210.5" y2="210.5"/><ellipse cx="1553.5" cy="221.5" fill="#84BE84" rx="3" ry="3" style="stroke:#038048;stroke-width:1.0;"/><text fill="#000000" font-family="sans-serif" font-size="11" lengthAdjust="spacing" textLength="90" x="1562.5" y="225.9189">«Create» Crunch()</text><polygon fill="#FFFF44" points="1553.5,230.3359,1557.5,234.3359,1553.5,238.3359,1549.5,234.3359" style="stroke:#B38D22;stroke-width:1.0;"/><text fill="#000000" font-family="sans-serif" font-size="11" lengthAdjust="spacing" textLength="155" x="1562.5" y="239.7549">void applyOppEffects(Pokemon)</text><polygon fill="#FFFF44" points="1553.5,244.1719,1557.5,248.1719,1553.5,252.1719,1549.5,248.1719" style="stroke:#B38D22;stroke-width:1.0;"/><text fill="#000000" font-family="sans-serif" font-size="11" lengthAdjust="spacing" textLength="81" x="1562.5" y="253.5908">String describe()</text><!--MD5=[2db1a8d3650a33d82cf3444bfadbbc1d]
class com.company.Facade--><rect codeLine="99" fill="#FEFECE" filter="url(#f14re3jtbkn07r)" height="89.5078" id="com.company.Facade" style="stroke:#A80036;stroke-width:1.5;" width="242" x="1759" y="170.5"/><ellipse cx="1855.25" cy="186.5" fill="#ADD1B2" rx="11" ry="11" style="stroke:#A80036;stroke-width:1.0;"/><path d="M1857.25,183 Q1857.4531,182.5 1857.6875,182.25 Q1857.9219,182 1858.1875,182 Q1858.6563,182 1858.9531,182.2813 Q1859.25,182.5625 1859.25,183.2188 L1859.25,184.7813 Q1859.25,185.4375 1858.9688,185.7188 Q1858.6875,186 1858.25,186 Q1857.8594,186 1857.6094,185.8281 Q1857.3594,185.6563 1857.25,185.2031 Q1857.2031,184.8906 1857.0313,184.7188 Q1856.7188,184.3906 1856.1563,184.2031 Q1855.5938,184 1855.0313,184 Q1854.3281,184 1853.7344,184.2813 Q1853.1563,184.5625 1852.7031,185.1875 Q1852.25,185.8125 1852.25,186.6719 L1852.25,187.5938 Q1852.25,188.625 1853.0938,189.3125 Q1853.9375,190 1855.4375,190 Q1856.3281,190 1856.9531,189.7969 Q1857.3125,189.6875 1857.7188,189.3281 Q1857.9844,189.125 1858.125,189.0625 Q1858.2656,189 1858.4375,189 Q1858.7656,189 1859,189.2656 Q1859.25,189.5156 1859.25,189.875 Q1859.25,190.2188 1858.9063,190.625 Q1858.4063,191.2188 1857.6094,191.5469 Q1856.5625,192 1855.2813,192 Q1853.7813,192 1852.5781,191.4063 Q1851.6094,190.9375 1850.9219,189.9219 Q1850.25,188.9063 1850.25,187.7031 L1850.25,186.6094 Q1850.25,185.3594 1850.8438,184.2656 Q1851.4531,183.1719 1852.5,182.5938 Q1853.5625,182 1854.75,182 Q1855.4688,182 1856.0938,182.25 Q1856.7188,182.5 1857.25,183 Z " fill="#000000"/><text fill="#000000" font-family="sans-serif" font-size="12" lengthAdjust="spacing" textLength="41" x="1875.75" y="191.4102">Facade</text><line style="stroke:#A80036;stroke-width:1.5;" x1="1760" x2="2000" y1="202.5" y2="202.5"/><line style="stroke:#A80036;stroke-width:1.5;" x1="1760" x2="2000" y1="210.5" y2="210.5"/><ellipse cx="1770" cy="221.5" fill="#84BE84" rx="3" ry="3" style="stroke:#038048;stroke-width:1.0;"/><text fill="#000000" font-family="sans-serif" font-size="11" lengthAdjust="spacing" textLength="91" x="1779" y="225.9189">«Create» Facade()</text><polygon fill="#FFFF44" points="1770,230.3359,1774,234.3359,1770,238.3359,1766,234.3359" style="stroke:#B38D22;stroke-width:1.0;"/><text fill="#000000" font-family="sans-serif" font-size="11" lengthAdjust="spacing" textLength="216" x="1779" y="239.7549">double calcBaseDamage(Pokemon,Pokemon)</text><polygon fill="#FFFF44" points="1770,244.1719,1774,248.1719,1770,252.1719,1766,248.1719" style="stroke:#B38D22;stroke-width:1.0;"/><text fill="#000000" font-family="sans-serif" font-size="11" lengthAdjust="spacing" textLength="81" x="1779" y="253.5908">String describe()</text><!--MD5=[cfaf8b4da6e9f477fdfc6e11e64305bd]
class com.company.Headbutt--><rect codeLine="104" fill="#FEFECE" filter="url(#f14re3jtbkn07r)" height="89.5078" id="com.company.Headbutt" style="stroke:#A80036;stroke-width:1.5;" width="181" x="2036.5" y="170.5"/><ellipse cx="2097.75" cy="186.5" fill="#ADD1B2" rx="11" ry="11" style="stroke:#A80036;stroke-width:1.0;"/><path d="M2099.75,183 Q2099.9531,182.5 2100.1875,182.25 Q2100.4219,182 2100.6875,182 Q2101.1563,182 2101.4531,182.2813 Q2101.75,182.5625 2101.75,183.2188 L2101.75,184.7813 Q2101.75,185.4375 2101.4688,185.7188 Q2101.1875,186 2100.75,186 Q2100.3594,186 2100.1094,185.8281 Q2099.8594,185.6563 2099.75,185.2031 Q2099.7031,184.8906 2099.5313,184.7188 Q2099.2188,184.3906 2098.6563,184.2031 Q2098.0938,184 2097.5313,184 Q2096.8281,184 2096.2344,184.2813 Q2095.6563,184.5625 2095.2031,185.1875 Q2094.75,185.8125 2094.75,186.6719 L2094.75,187.5938 Q2094.75,188.625 2095.5938,189.3125 Q2096.4375,190 2097.9375,190 Q2098.8281,190 2099.4531,189.7969 Q2099.8125,189.6875 2100.2188,189.3281 Q2100.4844,189.125 2100.625,189.0625 Q2100.7656,189 2100.9375,189 Q2101.2656,189 2101.5,189.2656 Q2101.75,189.5156 2101.75,189.875 Q2101.75,190.2188 2101.4063,190.625 Q2100.9063,191.2188 2100.1094,191.5469 Q2099.0625,192 2097.7813,192 Q2096.2813,192 2095.0781,191.4063 Q2094.1094,190.9375 2093.4219,189.9219 Q2092.75,188.9063 2092.75,187.7031 L2092.75,186.6094 Q2092.75,185.3594 2093.3438,184.2656 Q2093.9531,183.1719 2095,182.5938 Q2096.0625,182 2097.25,182 Q2097.9688,182 2098.5938,182.25 Q2099.2188,182.5 2099.75,183 Z " fill="#000000"/><text fill="#000000" font-family="sans-serif" font-size="12" lengthAdjust="spacing" textLength="50" x="2118.25" y="191.4102">Headbutt</text><line style="stroke:#A80036;stroke-width:1.5;" x1="2037.5" x2="2216.5" y1="202.5" y2="202.5"/><line style="stroke:#A80036;stroke-width:1.5;" x1="2037.5" x2="2216.5" y1="210.5" y2="210.5"/><ellipse cx="2047.5" cy="221.5" fill="#84BE84" rx="3" ry="3" style="stroke:#038048;stroke-width:1.0;"/><text fill="#000000" font-family="sans-serif" font-size="11" lengthAdjust="spacing" textLength="98" x="2056.5" y="225.9189">«Create» Headbutt()</text><polygon fill="#FFFF44" points="2047.5,230.3359,2051.5,234.3359,2047.5,238.3359,2043.5,234.3359" style="stroke:#B38D22;stroke-width:1.0;"/><text fill="#000000" font-family="sans-serif" font-size="11" lengthAdjust="spacing" textLength="155" x="2056.5" y="239.7549">void applyOppEffects(Pokemon)</text><polygon fill="#FFFF44" points="2047.5,244.1719,2051.5,248.1719,2047.5,252.1719,2043.5,248.1719" style="stroke:#B38D22;stroke-width:1.0;"/><text fill="#000000" font-family="sans-serif" font-size="11" lengthAdjust="spacing" textLength="81" x="2056.5" y="253.5908">String describe()</text><!--MD5=[01f5ca02bfab467c809cf54612804cfe]
class com.company.Minior--><rect codeLine="109" fill="#FEFECE" filter="url(#f14re3jtbkn07r)" height="61.8359" id="com.company.Minior" style="stroke:#A80036;stroke-width:1.5;" width="151" x="3954.5" y="184.5"/><ellipse cx="4009.25" cy="200.5" fill="#ADD1B2" rx="11" ry="11" style="stroke:#A80036;stroke-width:1.0;"/><path d="M4011.25,197 Q4011.4531,196.5 4011.6875,196.25 Q4011.9219,196 4012.1875,196 Q4012.6563,196 4012.9531,196.2813 Q4013.25,196.5625 4013.25,197.2188 L4013.25,198.7813 Q4013.25,199.4375 4012.9688,199.7188 Q4012.6875,200 4012.25,200 Q4011.8594,200 4011.6094,199.8281 Q4011.3594,199.6563 4011.25,199.2031 Q4011.2031,198.8906 4011.0313,198.7188 Q4010.7188,198.3906 4010.1563,198.2031 Q4009.5938,198 4009.0313,198 Q4008.3281,198 4007.7344,198.2813 Q4007.1563,198.5625 4006.7031,199.1875 Q4006.25,199.8125 4006.25,200.6719 L4006.25,201.5938 Q4006.25,202.625 4007.0938,203.3125 Q4007.9375,204 4009.4375,204 Q4010.3281,204 4010.9531,203.7969 Q4011.3125,203.6875 4011.7188,203.3281 Q4011.9844,203.125 4012.125,203.0625 Q4012.2656,203 4012.4375,203 Q4012.7656,203 4013,203.2656 Q4013.25,203.5156 4013.25,203.875 Q4013.25,204.2188 4012.9063,204.625 Q4012.4063,205.2188 4011.6094,205.5469 Q4010.5625,206 4009.2813,206 Q4007.7813,206 4006.5781,205.4063 Q4005.6094,204.9375 4004.9219,203.9219 Q4004.25,202.9063 4004.25,201.7031 L4004.25,200.6094 Q4004.25,199.3594 4004.8438,198.2656 Q4005.4531,197.1719 4006.5,196.5938 Q4007.5625,196 4008.75,196 Q4009.4688,196 4010.0938,196.25 Q4010.7188,196.5 4011.25,197 Z " fill="#000000"/><text fill="#000000" font-family="sans-serif" font-size="12" lengthAdjust="spacing" textLength="33" x="4029.75" y="205.4102">Minior</text><line style="stroke:#A80036;stroke-width:1.5;" x1="3955.5" x2="4104.5" y1="216.5" y2="216.5"/><line style="stroke:#A80036;stroke-width:1.5;" x1="3955.5" x2="4104.5" y1="224.5" y2="224.5"/><ellipse cx="3965.5" cy="235.5" fill="#84BE84" rx="3" ry="3" style="stroke:#038048;stroke-width:1.0;"/><text fill="#000000" font-family="sans-serif" font-size="11" lengthAdjust="spacing" textLength="125" x="3974.5" y="239.9189">«Create» Minior(String,int)</text><!--MD5=[d3e20a559819ff9c516257f0c8fb74e2]
class com.company.Dazzling_Gleam--><rect codeLine="112" fill="#FEFECE" filter="url(#f14re3jtbkn07r)" height="75.6719" id="com.company.Dazzling_Gleam" style="stroke:#A80036;stroke-width:1.5;" width="158" x="681" y="177.5"/><ellipse cx="712.2" cy="193.5" fill="#ADD1B2" rx="11" ry="11" style="stroke:#A80036;stroke-width:1.0;"/><path d="M714.2,190 Q714.4031,189.5 714.6375,189.25 Q714.8719,189 715.1375,189 Q715.6063,189 715.9031,189.2813 Q716.2,189.5625 716.2,190.2188 L716.2,191.7813 Q716.2,192.4375 715.9188,192.7188 Q715.6375,193 715.2,193 Q714.8094,193 714.5594,192.8281 Q714.3094,192.6563 714.2,192.2031 Q714.1531,191.8906 713.9813,191.7188 Q713.6688,191.3906 713.1063,191.2031 Q712.5438,191 711.9813,191 Q711.2781,191 710.6844,191.2813 Q710.1063,191.5625 709.6531,192.1875 Q709.2,192.8125 709.2,193.6719 L709.2,194.5938 Q709.2,195.625 710.0438,196.3125 Q710.8875,197 712.3875,197 Q713.2781,197 713.9031,196.7969 Q714.2625,196.6875 714.6688,196.3281 Q714.9344,196.125 715.075,196.0625 Q715.2156,196 715.3875,196 Q715.7156,196 715.95,196.2656 Q716.2,196.5156 716.2,196.875 Q716.2,197.2188 715.8563,197.625 Q715.3563,198.2188 714.5594,198.5469 Q713.5125,199 712.2313,199 Q710.7313,199 709.5281,198.4063 Q708.5594,197.9375 707.8719,196.9219 Q707.2,195.9063 707.2,194.7031 L707.2,193.6094 Q707.2,192.3594 707.7938,191.2656 Q708.4031,190.1719 709.45,189.5938 Q710.5125,189 711.7,189 Q712.4188,189 713.0438,189.25 Q713.6688,189.5 714.2,190 Z " fill="#000000"/><text fill="#000000" font-family="sans-serif" font-size="12" lengthAdjust="spacing" textLength="90" x="729.8" y="198.4102">Dazzling_Gleam</text><line style="stroke:#A80036;stroke-width:1.5;" x1="682" x2="838" y1="209.5" y2="209.5"/><line style="stroke:#A80036;stroke-width:1.5;" x1="682" x2="838" y1="217.5" y2="217.5"/><ellipse cx="692" cy="228.5" fill="#84BE84" rx="3" ry="3" style="stroke:#038048;stroke-width:1.0;"/><text fill="#000000" font-family="sans-serif" font-size="11" lengthAdjust="spacing" textLength="132" x="701" y="232.9189">«Create» Dazzling_Gleam()</text><polygon fill="#FFFF44" points="692,237.3359,696,241.3359,692,245.3359,688,241.3359" style="stroke:#B38D22;stroke-width:1.0;"/><text fill="#000000" font-family="sans-serif" font-size="11" lengthAdjust="spacing" textLength="81" x="701" y="246.7549">String describe()</text><!--MD5=[400093ed3e26ae89cc9ba5d2e6cf3d0d]
class com.company.Seed_Bomb--><rect codeLine="116" fill="#FEFECE" filter="url(#f14re3jtbkn07r)" height="75.6719" id="com.company.Seed_Bomb" style="stroke:#A80036;stroke-width:1.5;" width="139" x="2252.5" y="177.5"/><ellipse cx="2284.6" cy="193.5" fill="#ADD1B2" rx="11" ry="11" style="stroke:#A80036;stroke-width:1.0;"/><path d="M2286.6,190 Q2286.8031,189.5 2287.0375,189.25 Q2287.2719,189 2287.5375,189 Q2288.0063,189 2288.3031,189.2813 Q2288.6,189.5625 2288.6,190.2188 L2288.6,191.7813 Q2288.6,192.4375 2288.3188,192.7188 Q2288.0375,193 2287.6,193 Q2287.2094,193 2286.9594,192.8281 Q2286.7094,192.6563 2286.6,192.2031 Q2286.5531,191.8906 2286.3813,191.7188 Q2286.0688,191.3906 2285.5063,191.2031 Q2284.9438,191 2284.3813,191 Q2283.6781,191 2283.0844,191.2813 Q2282.5063,191.5625 2282.0531,192.1875 Q2281.6,192.8125 2281.6,193.6719 L2281.6,194.5938 Q2281.6,195.625 2282.4438,196.3125 Q2283.2875,197 2284.7875,197 Q2285.6781,197 2286.3031,196.7969 Q2286.6625,196.6875 2287.0688,196.3281 Q2287.3344,196.125 2287.475,196.0625 Q2287.6156,196 2287.7875,196 Q2288.1156,196 2288.35,196.2656 Q2288.6,196.5156 2288.6,196.875 Q2288.6,197.2188 2288.2563,197.625 Q2287.7563,198.2188 2286.9594,198.5469 Q2285.9125,199 2284.6313,199 Q2283.1313,199 2281.9281,198.4063 Q2280.9594,197.9375 2280.2719,196.9219 Q2279.6,195.9063 2279.6,194.7031 L2279.6,193.6094 Q2279.6,192.3594 2280.1938,191.2656 Q2280.8031,190.1719 2281.85,189.5938 Q2282.9125,189 2284.1,189 Q2284.8188,189 2285.4438,189.25 Q2286.0688,189.5 2286.6,190 Z " fill="#000000"/><text fill="#000000" font-family="sans-serif" font-size="12" lengthAdjust="spacing" textLength="69" x="2302.4" y="198.4102">Seed_Bomb</text><line style="stroke:#A80036;stroke-width:1.5;" x1="2253.5" x2="2390.5" y1="209.5" y2="209.5"/><line style="stroke:#A80036;stroke-width:1.5;" x1="2253.5" x2="2390.5" y1="217.5" y2="217.5"/><ellipse cx="2263.5" cy="228.5" fill="#84BE84" rx="3" ry="3" style="stroke:#038048;stroke-width:1.0;"/><text fill="#000000" font-family="sans-serif" font-size="11" lengthAdjust="spacing" textLength="113" x="2272.5" y="232.9189">«Create» Seed_Bomb()</text><polygon fill="#FFFF44" points="2263.5,237.3359,2267.5,241.3359,2263.5,245.3359,2259.5,241.3359" style="stroke:#B38D22;stroke-width:1.0;"/><text fill="#000000" font-family="sans-serif" font-size="11" lengthAdjust="spacing" textLength="81" x="2272.5" y="246.7549">String describe()</text><!--MD5=[71be11b2c6be279789fb022bdb94deb4]
class com.company.StatusMove--><rect fill="#FEFECE" filter="url(#f14re3jtbkn07r)" height="48" id="com.company.StatusMove" style="stroke:#A80036;stroke-width:1.5;" width="95" x="4765.5" y="49"/><ellipse cx="4780.5" cy="65" fill="#ADD1B2" rx="11" ry="11" style="stroke:#A80036;stroke-width:1.0;"/><path d="M4782.5,61.5 Q4782.7031,61 4782.9375,60.75 Q4783.1719,60.5 4783.4375,60.5 Q4783.9063,60.5 4784.2031,60.7813 Q4784.5,61.0625 4784.5,61.7188 L4784.5,63.2813 Q4784.5,63.9375 4784.2188,64.2188 Q4783.9375,64.5 4783.5,64.5 Q4783.1094,64.5 4782.8594,64.3281 Q4782.6094,64.1563 4782.5,63.7031 Q4782.4531,63.3906 4782.2813,63.2188 Q4781.9688,62.8906 4781.4063,62.7031 Q4780.8438,62.5 4780.2813,62.5 Q4779.5781,62.5 4778.9844,62.7813 Q4778.4063,63.0625 4777.9531,63.6875 Q4777.5,64.3125 4777.5,65.1719 L4777.5,66.0938 Q4777.5,67.125 4778.3438,67.8125 Q4779.1875,68.5 4780.6875,68.5 Q4781.5781,68.5 4782.2031,68.2969 Q4782.5625,68.1875 4782.9688,67.8281 Q4783.2344,67.625 4783.375,67.5625 Q4783.5156,67.5 4783.6875,67.5 Q4784.0156,67.5 4784.25,67.7656 Q4784.5,68.0156 4784.5,68.375 Q4784.5,68.7188 4784.1563,69.125 Q4783.6563,69.7188 4782.8594,70.0469 Q4781.8125,70.5 4780.5313,70.5 Q4779.0313,70.5 4777.8281,69.9063 Q4776.8594,69.4375 4776.1719,68.4219 Q4775.5,67.4063 4775.5,66.2031 L4775.5,65.1094 Q4775.5,63.8594 4776.0938,62.7656 Q4776.7031,61.6719 4777.75,61.0938 Q4778.8125,60.5 4780,60.5 Q4780.7188,60.5 4781.3438,60.75 Q4781.9688,61 4782.5,61.5 Z " fill="#000000"/><text fill="#000000" font-family="sans-serif" font-size="12" lengthAdjust="spacing" textLength="63" x="4794.5" y="69.9102">StatusMove</text><line style="stroke:#A80036;stroke-width:1.5;" x1="4766.5" x2="4859.5" y1="81" y2="81"/><line style="stroke:#A80036;stroke-width:1.5;" x1="4766.5" x2="4859.5" y1="89" y2="89"/><!--MD5=[3f1e8735e9d29f6d22892c99ab3f30cf]
class com.company.Pokemon--><rect fill="#FEFECE" filter="url(#f14re3jtbkn07r)" height="48" id="com.company.Pokemon" style="stroke:#A80036;stroke-width:1.5;" width="85" x="3223.5" y="49"/><ellipse cx="3238.5" cy="65" fill="#ADD1B2" rx="11" ry="11" style="stroke:#A80036;stroke-width:1.0;"/><path d="M3240.5,61.5 Q3240.7031,61 3240.9375,60.75 Q3241.1719,60.5 3241.4375,60.5 Q3241.9063,60.5 3242.2031,60.7813 Q3242.5,61.0625 3242.5,61.7188 L3242.5,63.2813 Q3242.5,63.9375 3242.2188,64.2188 Q3241.9375,64.5 3241.5,64.5 Q3241.1094,64.5 3240.8594,64.3281 Q3240.6094,64.1563 3240.5,63.7031 Q3240.4531,63.3906 3240.2813,63.2188 Q3239.9688,62.8906 3239.4063,62.7031 Q3238.8438,62.5 3238.2813,62.5 Q3237.5781,62.5 3236.9844,62.7813 Q3236.4063,63.0625 3235.9531,63.6875 Q3235.5,64.3125 3235.5,65.1719 L3235.5,66.0938 Q3235.5,67.125 3236.3438,67.8125 Q3237.1875,68.5 3238.6875,68.5 Q3239.5781,68.5 3240.2031,68.2969 Q3240.5625,68.1875 3240.9688,67.8281 Q3241.2344,67.625 3241.375,67.5625 Q3241.5156,67.5 3241.6875,67.5 Q3242.0156,67.5 3242.25,67.7656 Q3242.5,68.0156 3242.5,68.375 Q3242.5,68.7188 3242.1563,69.125 Q3241.6563,69.7188 3240.8594,70.0469 Q3239.8125,70.5 3238.5313,70.5 Q3237.0313,70.5 3235.8281,69.9063 Q3234.8594,69.4375 3234.1719,68.4219 Q3233.5,67.4063 3233.5,66.2031 L3233.5,65.1094 Q3233.5,63.8594 3234.0938,62.7656 Q3234.7031,61.6719 3235.75,61.0938 Q3236.8125,60.5 3238,60.5 Q3238.7188,60.5 3239.3438,60.75 Q3239.9688,61 3240.5,61.5 Z " fill="#000000"/><text fill="#000000" font-family="sans-serif" font-size="12" lengthAdjust="spacing" textLength="53" x="3252.5" y="69.9102">Pokemon</text><line style="stroke:#A80036;stroke-width:1.5;" x1="3224.5" x2="3307.5" y1="81" y2="81"/><line style="stroke:#A80036;stroke-width:1.5;" x1="3224.5" x2="3307.5" y1="89" y2="89"/><!--MD5=[8be7c6d1c0c90bb6ba3953c1e3cc6a6b]
class com.company.PhysicalMove--><rect fill="#FEFECE" filter="url(#f14re3jtbkn07r)" height="48" id="com.company.PhysicalMove" style="stroke:#A80036;stroke-width:1.5;" width="106" x="1580" y="49"/><ellipse cx="1595" cy="65" fill="#ADD1B2" rx="11" ry="11" style="stroke:#A80036;stroke-width:1.0;"/><path d="M1597,61.5 Q1597.2031,61 1597.4375,60.75 Q1597.6719,60.5 1597.9375,60.5 Q1598.4063,60.5 1598.7031,60.7813 Q1599,61.0625 1599,61.7188 L1599,63.2813 Q1599,63.9375 1598.7188,64.2188 Q1598.4375,64.5 1598,64.5 Q1597.6094,64.5 1597.3594,64.3281 Q1597.1094,64.1563 1597,63.7031 Q1596.9531,63.3906 1596.7813,63.2188 Q1596.4688,62.8906 1595.9063,62.7031 Q1595.3438,62.5 1594.7813,62.5 Q1594.0781,62.5 1593.4844,62.7813 Q1592.9063,63.0625 1592.4531,63.6875 Q1592,64.3125 1592,65.1719 L1592,66.0938 Q1592,67.125 1592.8438,67.8125 Q1593.6875,68.5 1595.1875,68.5 Q1596.0781,68.5 1596.7031,68.2969 Q1597.0625,68.1875 1597.4688,67.8281 Q1597.7344,67.625 1597.875,67.5625 Q1598.0156,67.5 1598.1875,67.5 Q1598.5156,67.5 1598.75,67.7656 Q1599,68.0156 1599,68.375 Q1599,68.7188 1598.6563,69.125 Q1598.1563,69.7188 1597.3594,70.0469 Q1596.3125,70.5 1595.0313,70.5 Q1593.5313,70.5 1592.3281,69.9063 Q1591.3594,69.4375 1590.6719,68.4219 Q1590,67.4063 1590,66.2031 L1590,65.1094 Q1590,63.8594 1590.5938,62.7656 Q1591.2031,61.6719 1592.25,61.0938 Q1593.3125,60.5 1594.5,60.5 Q1595.2188,60.5 1595.8438,60.75 Q1596.4688,61 1597,61.5 Z " fill="#000000"/><text fill="#000000" font-family="sans-serif" font-size="12" lengthAdjust="spacing" textLength="74" x="1609" y="69.9102">PhysicalMove</text><line style="stroke:#A80036;stroke-width:1.5;" x1="1581" x2="1685" y1="81" y2="81"/><line style="stroke:#A80036;stroke-width:1.5;" x1="1581" x2="1685" y1="89" y2="89"/><!--MD5=[56257c3f8c003d0f8348fdffc18a0ff0]
class com.company.SpecialMove--><rect fill="#FEFECE" filter="url(#f14re3jtbkn07r)" height="48" id="com.company.SpecialMove" style="stroke:#A80036;stroke-width:1.5;" width="101" x="396.5" y="49"/><ellipse cx="411.5" cy="65" fill="#ADD1B2" rx="11" ry="11" style="stroke:#A80036;stroke-width:1.0;"/><path d="M413.5,61.5 Q413.7031,61 413.9375,60.75 Q414.1719,60.5 414.4375,60.5 Q414.9063,60.5 415.2031,60.7813 Q415.5,61.0625 415.5,61.7188 L415.5,63.2813 Q415.5,63.9375 415.2188,64.2188 Q414.9375,64.5 414.5,64.5 Q414.1094,64.5 413.8594,64.3281 Q413.6094,64.1563 413.5,63.7031 Q413.4531,63.3906 413.2813,63.2188 Q412.9688,62.8906 412.4063,62.7031 Q411.8438,62.5 411.2813,62.5 Q410.5781,62.5 409.9844,62.7813 Q409.4063,63.0625 408.9531,63.6875 Q408.5,64.3125 408.5,65.1719 L408.5,66.0938 Q408.5,67.125 409.3438,67.8125 Q410.1875,68.5 411.6875,68.5 Q412.5781,68.5 413.2031,68.2969 Q413.5625,68.1875 413.9688,67.8281 Q414.2344,67.625 414.375,67.5625 Q414.5156,67.5 414.6875,67.5 Q415.0156,67.5 415.25,67.7656 Q415.5,68.0156 415.5,68.375 Q415.5,68.7188 415.1563,69.125 Q414.6563,69.7188 413.8594,70.0469 Q412.8125,70.5 411.5313,70.5 Q410.0313,70.5 408.8281,69.9063 Q407.8594,69.4375 407.1719,68.4219 Q406.5,67.4063 406.5,66.2031 L406.5,65.1094 Q406.5,63.8594 407.0938,62.7656 Q407.7031,61.6719 408.75,61.0938 Q409.8125,60.5 411,60.5 Q411.7188,60.5 412.3438,60.75 Q412.9688,61 413.5,61.5 Z " fill="#000000"/><text fill="#000000" font-family="sans-serif" font-size="12" lengthAdjust="spacing" textLength="69" x="425.5" y="69.9102">SpecialMove</text><line style="stroke:#A80036;stroke-width:1.5;" x1="397.5" x2="496.5" y1="81" y2="81"/><line style="stroke:#A80036;stroke-width:1.5;" x1="397.5" x2="496.5" y1="89" y2="89"/><!--MD5=[d99de365d586e296e9ad430a7fd755c1]
reverse link com.company.StatusMove to com.company.Double_Team--><path codeLine="122" d="M4745.42,85.75 C4662.87,100.78 4519.35,129.08 4399,164 C4393.36,165.64 4387.63,167.38 4381.85,169.21 " fill="none" id="com.company.StatusMove-backto-com.company.Double_Team" style="stroke:#A80036;stroke-width:1.0;"/><polygon fill="none" points="4744.36,78.83,4765.29,82.18,4746.84,92.61,4744.36,78.83" style="stroke:#A80036;stroke-width:1.0;"/><!--MD5=[e3d9cc7948084781ec60b08c6e182437]
reverse link com.company.Pokemon to com.company.Kakuna--><path codeLine="123" d="M3203.16,75.38 C3083.56,79.54 2816.1,96.33 2603,164 C2587.08,169.06 2570.64,176.6 2555.92,184.33 " fill="none" id="com.company.Pokemon-backto-com.company.Kakuna" style="stroke:#A80036;stroke-width:1.0;"/><polygon fill="none" points="3203.19,68.37,3223.4,74.74,3203.62,82.36,3203.19,68.37" style="stroke:#A80036;stroke-width:1.0;"/><!--MD5=[02ba9ed04bcc53e0a5bba159204421c1]
reverse link com.company.StatusMove to com.company.Work_Up--><path codeLine="124" d="M4749.56,106.29 C4716.04,123.36 4674.14,144.69 4636.42,163.89 " fill="none" id="com.company.StatusMove-backto-com.company.Work_Up" style="stroke:#A80036;stroke-width:1.0;"/><polygon fill="none" points="4746.73,99.88,4767.73,97.04,4753.09,112.35,4746.73,99.88" style="stroke:#A80036;stroke-width:1.0;"/><!--MD5=[fdba63cc0cdce297e82cfee2afa6fe8f]
reverse link com.company.Pokemon to com.company.Flaaffy--><path codeLine="125" d="M3203.35,80.14 C3111.82,90.4 2937.09,114.95 2796,164 C2780.49,169.39 2764.38,176.91 2749.86,184.49 " fill="none" id="com.company.Pokemon-backto-com.company.Flaaffy" style="stroke:#A80036;stroke-width:1.0;"/><polygon fill="none" points="3202.8,73.16,3223.44,77.97,3204.31,87.08,3202.8,73.16" style="stroke:#A80036;stroke-width:1.0;"/><!--MD5=[7f998691aaf5f1e8dc9047d69beeead4]
reverse link com.company.Cleffa to com.company.Clefairy--><path codeLine="126" d="M2857.34,263.32 C2843.16,284.29 2826.86,308.4 2814.35,326.91 " fill="none" id="com.company.Cleffa-backto-com.company.Clefairy" style="stroke:#A80036;stroke-width:1.0;"/><polygon fill="none" points="2851.62,259.29,2868.62,246.64,2863.22,267.13,2851.62,259.29" style="stroke:#A80036;stroke-width:1.0;"/><!--MD5=[14a2482e42085451471a8de9352306a8]
reverse link com.company.StatusMove to com.company.Light_Screen--><path codeLine="127" d="M4813,117.37 C4813,132.07 4813,148.63 4813,163.85 " fill="none" id="com.company.StatusMove-backto-com.company.Light_Screen" style="stroke:#A80036;stroke-width:1.0;"/><polygon fill="none" points="4806,117.2,4813,97.2,4820,117.2,4806,117.2" style="stroke:#A80036;stroke-width:1.0;"/><!--MD5=[7c630d86582c22cf4a9c59f47a71c995]
reverse link com.company.PhysicalMove to com.company.Aerial_Ace--><path codeLine="128" d="M1559.81,83.14 C1461.61,96.31 1282.27,123.58 1133,164 C1125.74,165.97 1118.31,168.15 1110.86,170.48 " fill="none" id="com.company.PhysicalMove-backto-com.company.Aerial_Ace" style="stroke:#A80036;stroke-width:1.0;"/><polygon fill="none" points="1559.04,76.18,1579.78,80.5,1560.87,90.06,1559.04,76.18" style="stroke:#A80036;stroke-width:1.0;"/><!--MD5=[9aac825da597129befb9e742d3e44658]
reverse link com.company.Pokemon to com.company.Cleffa--><path codeLine="129" d="M3203.82,90.19 C3145.67,106.17 3056.95,132.7 2983,164 C2969.01,169.92 2954.34,177.23 2940.86,184.43 " fill="none" id="com.company.Pokemon-backto-com.company.Cleffa" style="stroke:#A80036;stroke-width:1.0;"/><polygon fill="none" points="3202.27,83.36,3223.41,84.89,3205.93,96.87,3202.27,83.36" style="stroke:#A80036;stroke-width:1.0;"/><!--MD5=[073b9d29dafd1bb502214a3a670a19f9]
reverse link com.company.PhysicalMove to com.company.Horn_Attack--><path codeLine="130" d="M1560.15,88.75 C1493.32,103.55 1392.35,129.16 1309,164 C1299.74,167.87 1290.24,172.52 1281.06,177.42 " fill="none" id="com.company.PhysicalMove-backto-com.company.Horn_Attack" style="stroke:#A80036;stroke-width:1.0;"/><polygon fill="none" points="1558.71,81.9,1579.74,84.5,1561.67,95.58,1558.71,81.9" style="stroke:#A80036;stroke-width:1.0;"/><!--MD5=[4c07134f6b89dfdd0cc07099cd35a81c]
reverse link com.company.PhysicalMove to com.company.Low_Sweep--><path codeLine="131" d="M1580.49,108.16 C1551.78,126.83 1515.88,150.18 1485.04,170.24 " fill="none" id="com.company.PhysicalMove-backto-com.company.Low_Sweep" style="stroke:#A80036;stroke-width:1.0;"/><polygon fill="none" points="1576.75,102.24,1597.33,97.2,1584.38,113.97,1576.75,102.24" style="stroke:#A80036;stroke-width:1.0;"/><!--MD5=[20b7ef5e900b7871b330b52ff75ab33c]
reverse link com.company.Cleffa to com.company.Clefable--><path codeLine="132" d="M2922.43,263.01 C2937.56,284.05 2955,308.31 2968.37,326.91 " fill="none" id="com.company.Cleffa-backto-com.company.Clefable" style="stroke:#A80036;stroke-width:1.0;"/><polygon fill="none" points="2916.66,266.97,2910.67,246.64,2928.02,258.79,2916.66,266.97" style="stroke:#A80036;stroke-width:1.0;"/><!--MD5=[8a467ccd12b6c2319a57948a4b1a3808]
reverse link com.company.Kakuna to com.company.Beedrill--><path codeLine="133" d="M2506,266.81 C2506,286.92 2506,309.42 2506,326.91 " fill="none" id="com.company.Kakuna-backto-com.company.Beedrill" style="stroke:#A80036;stroke-width:1.0;"/><polygon fill="none" points="2499,266.64,2506,246.64,2513,266.64,2499,266.64" style="stroke:#A80036;stroke-width:1.0;"/><!--MD5=[05eb7025cb10a6160a81cc485276fb42]
reverse link com.company.StatusMove to com.company.Swagger--><path codeLine="134" d="M4870.74,106.98 C4903.88,125.9 4945.91,149.91 4981.84,170.43 " fill="none" id="com.company.StatusMove-backto-com.company.Swagger" style="stroke:#A80036;stroke-width:1.0;"/><polygon fill="none" points="4867.24,113.04,4853.35,97.04,4874.19,100.88,4867.24,113.04" style="stroke:#A80036;stroke-width:1.0;"/><!--MD5=[90a557a49f908190634c33544369bb61]
reverse link com.company.SpecialMove to com.company.Focus_Blast--><path codeLine="135" d="M377.56,102.05 C335.05,119.45 279.66,142.5 231,164 C225.32,166.51 219.49,169.12 213.62,171.79 " fill="none" id="com.company.SpecialMove-backto-com.company.Focus_Blast" style="stroke:#A80036;stroke-width:1.0;"/><polygon fill="none" points="374.95,95.56,396.11,94.49,380.24,108.52,374.95,95.56" style="stroke:#A80036;stroke-width:1.0;"/><!--MD5=[54aaf390bfc3f238dd82e0a33035df9f]
reverse link com.company.StatusMove to com.company.Tail_Whip--><path codeLine="136" d="M4880.48,87.19 C4952.55,102.2 5069.58,129.19 5167,164 C5172.75,166.05 5178.61,168.31 5184.48,170.68 " fill="none" id="com.company.StatusMove-backto-com.company.Tail_Whip" style="stroke:#A80036;stroke-width:1.0;"/><polygon fill="none" points="4878.7,93.97,4860.51,83.1,4881.51,80.26,4878.7,93.97" style="stroke:#A80036;stroke-width:1.0;"/><!--MD5=[f37744224f2ec01af6c97874f7a06bcf]
reverse link com.company.Pokemon to com.company.Silvally--><path codeLine="137" d="M3218.81,109.27 C3187.83,132.42 3147.75,162.37 3118.28,184.4 " fill="none" id="com.company.Pokemon-backto-com.company.Silvally" style="stroke:#A80036;stroke-width:1.0;"/><polygon fill="none" points="3214.74,103.57,3234.96,97.2,3223.13,114.78,3214.74,103.57" style="stroke:#A80036;stroke-width:1.0;"/><!--MD5=[bd3a0d41ecd763aab546b3521cc4cabd]
reverse link com.company.Pokemon to com.company.Klefki--><path codeLine="138" d="M3266,117.22 C3266,138.97 3266,164.82 3266,184.4 " fill="none" id="com.company.Pokemon-backto-com.company.Klefki" style="stroke:#A80036;stroke-width:1.0;"/><polygon fill="none" points="3259,117.2,3266,97.2,3273,117.2,3259,117.2" style="stroke:#A80036;stroke-width:1.0;"/><!--MD5=[89ce6732007dbe4e8c7c7d97cd851b68]
reverse link com.company.Pokemon to com.company.Ekans--><path codeLine="139" d="M3312.69,109.27 C3343.33,132.42 3382.99,162.37 3412.15,184.4 " fill="none" id="com.company.Pokemon-backto-com.company.Ekans" style="stroke:#A80036;stroke-width:1.0;"/><polygon fill="none" points="3308.45,114.84,3296.71,97.2,3316.89,103.67,3308.45,114.84" style="stroke:#A80036;stroke-width:1.0;"/><!--MD5=[be96da113c073f4b925a33ac5129f664]
reverse link com.company.Pokemon to com.company.Snorlax--><path codeLine="140" d="M3327.91,90.64 C3385.38,106.84 3472.82,133.45 3546,164 C3560.28,169.96 3575.3,177.25 3589.14,184.41 " fill="none" id="com.company.Pokemon-backto-com.company.Snorlax" style="stroke:#A80036;stroke-width:1.0;"/><polygon fill="none" points="3325.94,97.35,3308.54,85.25,3329.69,83.87,3325.94,97.35" style="stroke:#A80036;stroke-width:1.0;"/><!--MD5=[08e15ff645d8e183b29bc379e88dac61]
reverse link com.company.SpecialMove to com.company.Ice_Beam--><path codeLine="141" d="M416.8,113.28 C403.19,130.99 387.06,151.98 373.02,170.24 " fill="none" id="com.company.SpecialMove-backto-com.company.Ice_Beam" style="stroke:#A80036;stroke-width:1.0;"/><polygon fill="none" points="411.43,108.79,429.17,97.2,422.53,117.32,411.43,108.79" style="stroke:#A80036;stroke-width:1.0;"/><!--MD5=[15e8303c9a762b82c85c8adb713b58b4]
reverse link com.company.SpecialMove to com.company.Blizzard--><path codeLine="142" d="M477.2,113.28 C490.81,130.99 506.94,151.98 520.98,170.24 " fill="none" id="com.company.SpecialMove-backto-com.company.Blizzard" style="stroke:#A80036;stroke-width:1.0;"/><polygon fill="none" points="471.47,117.32,464.83,97.2,482.57,108.79,471.47,117.32" style="stroke:#A80036;stroke-width:1.0;"/><!--MD5=[3a2e2697d31a85b87c0a9a890c4517a6]
reverse link com.company.Pokemon to com.company.Luvdisc--><path codeLine="143" d="M3328.64,80.05 C3420.93,90.25 3597.98,114.77 3741,164 C3756.65,169.39 3772.92,176.9 3787.59,184.49 " fill="none" id="com.company.Pokemon-backto-com.company.Luvdisc" style="stroke:#A80036;stroke-width:1.0;"/><polygon fill="none" points="3327.81,87,3308.67,77.92,3329.3,73.08,3327.81,87" style="stroke:#A80036;stroke-width:1.0;"/><!--MD5=[9d01e289a53e081e0fe6741147aca8a1]
reverse link com.company.PhysicalMove to com.company.Crunch--><path codeLine="144" d="M1633,117.47 C1633,134.24 1633,153.4 1633,170.24 " fill="none" id="com.company.PhysicalMove-backto-com.company.Crunch" style="stroke:#A80036;stroke-width:1.0;"/><polygon fill="none" points="1626,117.2,1633,97.2,1640,117.2,1626,117.2" style="stroke:#A80036;stroke-width:1.0;"/><!--MD5=[0e3a2d840057a5b9a4b24e2d612bb793]
reverse link com.company.PhysicalMove to com.company.Facade--><path codeLine="145" d="M1690.98,106.98 C1724.25,125.9 1766.45,149.91 1802.53,170.43 " fill="none" id="com.company.PhysicalMove-backto-com.company.Facade" style="stroke:#A80036;stroke-width:1.0;"/><polygon fill="none" points="1687.43,113.02,1673.51,97.04,1694.36,100.85,1687.43,113.02" style="stroke:#A80036;stroke-width:1.0;"/><!--MD5=[fbab00a30851493b501fbb8fec18bca6]
reverse link com.company.PhysicalMove to com.company.Headbutt--><path codeLine="146" d="M1705.94,86.31 C1784.52,100.65 1912.6,127.17 2019,164 C2024.67,165.96 2030.45,168.13 2036.22,170.43 " fill="none" id="com.company.PhysicalMove-backto-com.company.Headbutt" style="stroke:#A80036;stroke-width:1.0;"/><polygon fill="none" points="1704.57,93.18,1686.11,82.76,1707.03,79.4,1704.57,93.18" style="stroke:#A80036;stroke-width:1.0;"/><!--MD5=[1e98e86fb7104f2f2daadc29043180a7]
reverse link com.company.Pokemon to com.company.Minior--><path codeLine="147" d="M3328.88,74.89 C3449.71,78.23 3721.44,93.66 3937,164 C3952.37,169.02 3968.16,176.55 3982.27,184.28 " fill="none" id="com.company.Pokemon-backto-com.company.Minior" style="stroke:#A80036;stroke-width:1.0;"/><polygon fill="none" points="3328.62,81.88,3308.8,74.41,3328.96,67.89,3328.62,81.88" style="stroke:#A80036;stroke-width:1.0;"/><!--MD5=[cbf618848c207852497d673ee8833430]
reverse link com.company.SpecialMove to com.company.Dazzling_Gleam--><path codeLine="148" d="M516.35,101.15 C559.04,118.29 614.65,141.39 663,164 C671.94,168.18 681.26,172.75 690.42,177.37 " fill="none" id="com.company.SpecialMove-backto-com.company.Dazzling_Gleam" style="stroke:#A80036;stroke-width:1.0;"/><polygon fill="none" points="513.7,107.63,497.72,93.71,518.89,94.62,513.7,107.63" style="stroke:#A80036;stroke-width:1.0;"/><!--MD5=[ac780488b174e8ac1312b78aab50eac5]
reverse link com.company.PhysicalMove to com.company.Seed_Bomb--><path codeLine="149" d="M1706.33,76.13 C1821.86,81.41 2051.93,99.82 2235,164 C2245.05,167.52 2255.26,172.24 2264.96,177.37 " fill="none" id="com.company.PhysicalMove-backto-com.company.Seed_Bomb" style="stroke:#A80036;stroke-width:1.0;"/><polygon fill="none" points="1705.82,83.11,1686.13,75.28,1706.4,69.12,1705.82,83.11" style="stroke:#A80036;stroke-width:1.0;"/><!--MD5=[26fda00549c6c9a09ac6032f14eb847a]
@startuml
class com.company.Double_Team {
+ <<Create>> Double_Team()
# boolean checkAccuracy(Pokemon,Pokemon)
# void applySelfEffects(Pokemon)
# String describe()
}
class com.company.Kakuna {
+ <<Create>> Kakuna(String,int)
}
class com.company.Work_Up {
+ <<Create>> Work_Up()
# boolean checkAccuracy(Pokemon,Pokemon)
# void applySelfEffects(Pokemon)
# String describe()
}
class com.company.Flaaffy {
+ <<Create>> Flaaffy(String,int)
}
class com.company.Clefairy {
+ <<Create>> Clefairy(String,int)
}
class com.company.Light_Screen {
+ <<Create>> Light_Screen()
# boolean checkAccuracy(Pokemon,Pokemon)
# void applySelfEffects(Pokemon)
# String describe()
}
class com.company.Aerial_Ace {
+ <<Create>> Aerial_Ace()
# boolean checkAccuracy(Pokemon,Pokemon)
# String describe()
}
class com.company.Cleffa {
+ <<Create>> Cleffa(String,int)
}
class com.company.Horn_Attack {
+ <<Create>> Horn_Attack()
# String describe()
}
class com.company.Low_Sweep {
+ <<Create>> Low_Sweep()
# void applyOppEffects(Pokemon)
# String describe()
}
class com.company.Clefable {
+ <<Create>> Clefable(String,int)
}
class com.company.Beedrill {
+ <<Create>> Beedrill(String,int)
}
class com.company.Swagger {
+ <<Create>> Swagger()
# void applyOppEffects(Pokemon)
# String describe()
}
class com.company.Focus_Blast {
+ <<Create>> Focus_Blast()
# void applyOppEffects(Pokemon)
# String describe()
}
class com.company.Tail_Whip {
+ <<Create>> Tail_Whip()
# void applyOppEffects(Pokemon)
# String describe()
}
class com.company.Silvally {
+ <<Create>> Silvally(String,int)
}
class com.company.Klefki {
+ <<Create>> Klefki(String,int)
}
class com.company.Ekans {
+ <<Create>> Ekans(String,int)
}
class com.company.Main {
+ {static} void main(String[])
}
class com.company.Snorlax {
+ <<Create>> Snorlax(String,int)
}
class com.company.Ice_Beam {
+ <<Create>> Ice_Beam()
# void applyOppEffects(Pokemon)
# String describe()
}
class com.company.Blizzard {
+ <<Create>> Blizzard()
# void applyOppEffects(Pokemon)
# String describe()
}
class com.company.Luvdisc {
+ <<Create>> Luvdisc(String,int)
}
class com.company.Crunch {
+ <<Create>> Crunch()
# void applyOppEffects(Pokemon)
# String describe()
}
class com.company.Facade {
+ <<Create>> Facade()
# double calcBaseDamage(Pokemon,Pokemon)
# String describe()
}
class com.company.Headbutt {
+ <<Create>> Headbutt()
# void applyOppEffects(Pokemon)
# String describe()
}
class com.company.Minior {
+ <<Create>> Minior(String,int)
}
class com.company.Dazzling_Gleam {
+ <<Create>> Dazzling_Gleam()
# String describe()
}
class com.company.Seed_Bomb {
+ <<Create>> Seed_Bomb()
# String describe()
}


com.company.StatusMove <|- - com.company.Double_Team
com.company.Pokemon <|- - com.company.Kakuna
com.company.StatusMove <|- - com.company.Work_Up
com.company.Pokemon <|- - com.company.Flaaffy
com.company.Cleffa <|- - com.company.Clefairy
com.company.StatusMove <|- - com.company.Light_Screen
com.company.PhysicalMove <|- - com.company.Aerial_Ace
com.company.Pokemon <|- - com.company.Cleffa
com.company.PhysicalMove <|- - com.company.Horn_Attack
com.company.PhysicalMove <|- - com.company.Low_Sweep
com.company.Cleffa <|- - com.company.Clefable
com.company.Kakuna <|- - com.company.Beedrill
com.company.StatusMove <|- - com.company.Swagger
com.company.SpecialMove <|- - com.company.Focus_Blast
com.company.StatusMove <|- - com.company.Tail_Whip
com.company.Pokemon <|- - com.company.Silvally
com.company.Pokemon <|- - com.company.Klefki
com.company.Pokemon <|- - com.company.Ekans
com.company.Pokemon <|- - com.company.Snorlax
com.company.SpecialMove <|- - com.company.Ice_Beam
com.company.SpecialMove <|- - com.company.Blizzard
com.company.Pokemon <|- - com.company.Luvdisc
com.company.PhysicalMove <|- - com.company.Crunch
com.company.PhysicalMove <|- - com.company.Facade
com.company.PhysicalMove <|- - com.company.Headbutt
com.company.Pokemon <|- - com.company.Minior
com.company.SpecialMove <|- - com.company.Dazzling_Gleam
com.company.PhysicalMove <|- - com.company.Seed_Bomb
@enduml

PlantUML version 1.2021.11(Sat Oct 02 16:26:11 MSK 2021)
(GPL source distribution)
Java Runtime: OpenJDK Runtime Environment
JVM: OpenJDK 64-Bit Server VM
Default Encoding: Cp1251
Language: ru
Country: RU
--></g></svg>
